<svg width="477" height="373" viewBox="0 0 477 373" fill="none" xmlns="http://www.w3.org/2000/svg">
<g clip-path="url(#clip0_454_221)">
<path d="M147.339 56.36C147.339 56.3968 147.339 56.4359 147.323 56.4727H59.0967C59.0945 53.8418 59.749 51.2542 60.9978 48.9571C62.2467 46.66 64.0481 44.73 66.23 43.3515C68.412 41.973 70.9016 41.192 73.4612 41.0831C76.0207 40.9741 78.5647 41.5409 80.8503 42.7293C81.9675 39.0923 84.3581 36.0099 87.5599 34.0781C90.7616 32.1462 94.5471 31.5022 98.1844 32.2705C105.184 33.6788 110.14 40.1427 110.14 47.4713V47.5447C110.379 47.5815 110.789 47.9146 110.856 47.6745C113.479 39.1017 124.164 38.0044 131.529 38.7441C140.437 39.6382 148.756 46.3813 147.339 56.36Z" fill="white" stroke="#8CBFBE" stroke-width="1.41593" stroke-miterlimit="10"/>
<path d="M417.995 355.524C411.114 355.524 405.533 360.018 405.533 365.566C405.533 367.905 406.528 370.061 408.197 371.768H373.181C364.105 345.264 364.105 316.373 373.181 289.868H408.216C406.547 288.154 405.533 285.998 405.533 283.647C405.533 278.092 411.114 273.605 417.995 273.605C424.876 273.605 430.461 278.104 430.461 283.647C430.461 285.998 429.46 288.159 427.778 289.868H446.126V320.588C444.492 318.972 442.453 318.017 440.247 318.017C434.845 318.017 430.468 323.748 430.468 330.815C430.468 337.881 434.852 343.62 440.247 343.62C442.453 343.62 444.492 342.665 446.126 341.048V371.768H427.797C429.467 370.053 430.461 367.905 430.461 365.566C430.461 360.018 424.88 355.524 417.995 355.524Z" fill="#FBC343"/>
<path d="M92.9727 154.761C92.9727 69.278 160.44 0 243.666 0C326.893 0 394.36 69.2878 394.36 154.761H92.9727Z" fill="white"/>
<path opacity="0.1" d="M92.9727 154.761C92.9727 69.278 160.44 0 243.666 0C326.893 0 394.36 69.2878 394.36 154.761H92.9727Z" fill="#FBC343"/>
<path d="M225.257 372.393C221.648 372.388 218.183 370.939 215.598 368.353C213.013 365.768 211.511 362.249 211.412 358.544L188.74 346.361H298.6L275.926 358.544C275.828 362.247 274.329 365.765 271.746 368.351C269.163 370.936 265.7 372.386 262.093 372.393H225.257Z" fill="#102048"/>
<path d="M296.168 346.968L275.327 358.167C275.328 359.954 274.985 361.724 274.319 363.375C273.654 365.026 272.678 366.526 271.447 367.79C270.216 369.054 268.756 370.056 267.148 370.74C265.54 371.424 263.817 371.776 262.076 371.775H225.257C223.516 371.776 221.793 371.424 220.185 370.74C218.577 370.056 217.116 369.054 215.885 367.79C214.655 366.527 213.678 365.026 213.012 363.375C212.346 361.724 212.003 359.954 212.003 358.167L191.166 346.968H296.168ZM301.019 345.743H186.314L190.607 348.053L210.832 358.921C211.025 362.719 212.628 366.296 215.312 368.916C217.996 371.535 221.556 372.998 225.259 373.002H262.079C265.782 372.998 269.342 371.535 272.026 368.916C274.71 366.296 276.313 362.719 276.506 358.921L296.723 348.056L301.016 345.746L301.019 345.743Z" fill="white"/>
<path d="M243.476 277.609C309.54 277.609 363.096 222.608 363.096 154.761C363.096 86.9139 309.54 31.9128 243.476 31.9128C177.412 31.9128 123.856 86.9139 123.856 154.761C123.856 222.608 177.412 277.609 243.476 277.609Z" fill="white"/>
<path d="M243.476 277.609C309.54 277.609 363.096 222.608 363.096 154.761C363.096 86.9139 309.54 31.9128 243.476 31.9128C177.412 31.9128 123.856 86.9139 123.856 154.761C123.856 222.608 177.412 277.609 243.476 277.609Z" fill="white"/>
<path d="M296.169 240.296H191.167V299.029H296.169V240.296Z" fill="#FBC343"/>
<path d="M296.169 299.027H191.167V330.949H296.169V299.027Z" fill="#708CD5"/>
<path d="M321.581 97.3282C314.695 97.3282 309.112 101.828 309.112 107.371C309.112 109.722 310.113 111.885 311.795 113.594H283.54V85.7672C281.887 87.4376 279.819 88.437 277.577 88.437C272.168 88.437 267.799 82.7055 267.799 75.6341C267.799 68.5628 272.175 62.8362 277.577 62.8362C279.831 62.8362 281.899 63.8331 283.54 65.5035V38.7025C300.357 44.8315 315.631 54.7362 328.249 67.6951C340.867 80.6539 350.511 96.3404 356.478 113.612H331.359C333.041 111.897 334.042 109.739 334.042 107.388C334.042 101.835 328.461 97.3282 321.581 97.3282Z" fill="#FBD682"/>
<path d="M283.54 246.495C281.887 248.168 279.819 249.165 277.577 249.165C272.168 249.165 267.799 243.433 267.799 236.367C267.799 229.3 272.175 223.564 277.577 223.564C279.831 223.564 281.899 224.561 283.54 226.234V195.511H311.778C310.109 193.797 309.112 191.649 309.112 189.307C309.112 183.754 314.695 179.265 321.581 179.265C328.466 179.265 334.042 183.759 334.042 189.307C334.042 191.649 333.045 193.804 331.376 195.511H356.485C350.518 212.784 340.873 228.472 328.254 241.432C315.634 254.392 300.359 264.297 283.54 270.425V246.495Z" fill="#FBC343"/>
<path d="M321.58 179.26C314.694 179.26 309.111 183.754 309.111 189.302C309.111 191.644 310.108 193.799 311.777 195.506H283.539V164.081C285.273 166.119 287.565 167.363 290.086 167.363C295.488 167.363 299.864 161.632 299.864 154.565C299.864 147.499 295.483 141.76 290.086 141.76C287.565 141.76 285.273 143.004 283.539 145.042V113.612H311.794C310.125 111.897 309.111 109.739 309.111 107.388C309.111 101.835 314.694 97.3455 321.58 97.3455C328.465 97.3455 334.041 101.845 334.041 107.388C334.041 109.739 333.04 111.902 331.358 113.612H356.477C365.555 140.116 365.555 169.007 356.477 195.511H331.375C333.045 193.797 334.041 191.649 334.041 189.307C334.041 183.754 328.461 179.26 321.58 179.26Z" fill="#FBC343"/>
<path d="M203.795 270.425V246.593C202.161 248.21 200.122 249.165 197.916 249.165C192.514 249.165 188.138 243.433 188.138 236.367C188.138 229.3 192.521 223.564 197.916 223.564C200.122 223.564 202.161 224.517 203.795 226.136V195.519H233.863C232.193 193.804 231.199 191.656 231.199 189.314C231.199 183.762 236.78 179.272 243.665 179.272C250.551 179.272 256.127 183.767 256.127 189.314C256.127 191.656 255.132 193.811 253.463 195.519H283.538V226.241C281.885 224.568 279.817 223.571 277.575 223.571C272.166 223.571 267.797 229.303 267.797 236.374C267.797 243.446 272.173 249.172 277.575 249.172C279.829 249.172 281.897 248.175 283.538 246.502V270.433C257.731 279.75 229.602 279.75 203.795 270.433V270.425Z" fill="#FBC343"/>
<path d="M243.665 130.15C236.78 130.15 231.199 125.65 231.199 120.107C231.199 117.629 232.313 115.356 234.161 113.612H203.795V85.8652C202.161 87.4818 200.122 88.4371 197.916 88.4371C192.514 88.4371 188.138 82.7055 188.138 75.6342C188.138 68.5629 192.521 62.8362 197.916 62.8362C200.122 62.8362 202.161 63.789 203.795 65.4081V38.7099C229.602 29.3926 257.731 29.3926 283.538 38.7099V65.5036C281.885 63.8331 279.817 62.8362 277.575 62.8362C272.166 62.8362 267.797 68.5653 267.797 75.6342C267.797 82.7031 272.173 88.4371 277.575 88.4371C279.829 88.4371 281.897 87.4377 283.538 85.7672V113.612H253.165C255.013 115.356 256.127 117.629 256.127 120.107C256.127 125.655 250.546 130.15 243.665 130.15Z" fill="#FBC343"/>
<path d="M175.666 97.3282C168.786 97.3282 163.205 101.828 163.205 107.371C163.205 109.722 164.206 111.885 165.888 113.594H130.859C136.829 96.3264 146.474 80.6433 159.091 67.6876C171.709 54.7318 186.982 44.8297 203.797 38.7025V65.4007C202.164 63.7816 200.125 62.8288 197.918 62.8288C192.516 62.8288 188.14 68.5579 188.14 75.6268C188.14 82.6957 192.524 88.4296 197.918 88.4296C200.125 88.4296 202.164 87.4744 203.797 85.8578V113.612H185.45C187.119 111.897 188.133 109.739 188.133 107.388C188.133 101.835 182.554 97.3282 175.666 97.3282Z" fill="#FBD682"/>
<path d="M321.581 97.3282C314.695 97.3282 309.112 101.828 309.112 107.371C309.112 109.722 310.113 111.885 311.795 113.594H283.54V85.7672C281.887 87.4376 279.819 88.437 277.577 88.437C272.168 88.437 267.799 82.7055 267.799 75.6341C267.799 68.5628 272.175 62.8362 277.577 62.8362C279.831 62.8362 281.899 63.8331 283.54 65.5035V38.7025C300.357 44.8315 315.631 54.7362 328.249 67.6951C340.867 80.6539 350.511 96.3404 356.478 113.612H331.359C333.041 111.897 334.042 109.739 334.042 107.388C334.042 101.835 328.461 97.3282 321.581 97.3282Z" fill="#FBC343"/>
<path d="M321.58 179.26C314.694 179.26 309.111 183.754 309.111 189.302C309.111 191.644 310.108 193.799 311.777 195.506H283.539V164.081C285.273 166.119 287.565 167.363 290.086 167.363C295.488 167.363 299.864 161.632 299.864 154.565C299.864 147.499 295.483 141.76 290.086 141.76C287.565 141.76 285.273 143.004 283.539 145.042V113.612H311.794C310.125 111.897 309.111 109.739 309.111 107.388C309.111 101.835 314.694 97.3455 321.58 97.3455C328.465 97.3455 334.041 101.845 334.041 107.388C334.041 109.739 333.04 111.902 331.358 113.612H356.477C365.555 140.116 365.555 169.007 356.477 195.511H331.375C333.045 193.797 334.041 191.649 334.041 189.307C334.041 183.754 328.461 179.26 321.58 179.26Z" fill="#FBC343"/>
<path d="M243.665 130.15C236.78 130.15 231.199 125.65 231.199 120.107C231.199 117.629 232.313 115.356 234.161 113.612H203.795V85.8652C202.161 87.4818 200.122 88.4371 197.916 88.4371C192.514 88.4371 188.138 82.7055 188.138 75.6342C188.138 68.5629 192.521 62.8362 197.916 62.8362C200.122 62.8362 202.161 63.789 203.795 65.4081V38.7099C229.602 29.3926 257.731 29.3926 283.538 38.7099V65.5036C281.885 63.8331 279.817 62.8362 277.575 62.8362C272.166 62.8362 267.797 68.5653 267.797 75.6342C267.797 82.7031 272.173 88.4371 277.575 88.4371C279.829 88.4371 281.897 87.4377 283.538 85.7672V113.612H253.165C255.013 115.356 256.127 117.629 256.127 120.107C256.127 125.655 250.546 130.15 243.665 130.15Z" fill="#FBC343"/>
<path d="M175.666 97.3282C168.786 97.3282 163.205 101.828 163.205 107.371C163.205 109.722 164.206 111.885 165.888 113.594H130.859C136.829 96.3264 146.474 80.6433 159.091 67.6876C171.709 54.7318 186.982 44.8297 203.797 38.7025V65.4007C202.164 63.7816 200.125 62.8288 197.918 62.8288C192.516 62.8288 188.14 68.5579 188.14 75.6268C188.14 82.6957 192.524 88.4296 197.918 88.4296C200.125 88.4296 202.164 87.4744 203.797 85.8578V113.612H185.45C187.119 111.897 188.133 109.739 188.133 107.388C188.133 101.835 182.554 97.3282 175.666 97.3282Z" fill="#FBC343"/>
<path d="M356.481 114.229H329.91L330.94 113.181C332.581 111.515 333.447 109.506 333.447 107.393C333.447 102.188 328.123 97.9528 321.581 97.9528C315.039 97.9528 309.709 102.188 309.709 107.393C309.709 109.514 310.577 111.515 312.215 113.181L313.248 114.229H282.944V87.1119C281.412 88.3558 279.519 89.0378 277.566 89.0493C271.842 89.0493 267.187 83.0312 267.187 75.6341C267.187 68.237 271.842 62.2238 277.566 62.2238C279.519 62.2345 281.412 62.9156 282.944 64.1588V38.7025H284.137V66.9683L283.121 65.942C281.511 64.3107 279.589 63.4485 277.566 63.4485C272.5 63.4485 268.379 68.9131 268.379 75.6341C268.379 82.3552 272.5 87.8247 277.566 87.8247C279.589 87.8247 281.511 86.9625 283.121 85.3312L284.137 84.3049V113.004H310.469C309.226 111.41 308.539 109.435 308.516 107.393C308.516 101.514 314.379 96.7281 321.581 96.7281C328.784 96.7281 334.639 101.512 334.639 107.393C334.618 109.435 333.93 111.411 332.686 113.004H356.481V114.229Z" fill="#FDF6E6"/>
<path d="M284.137 270.425H282.944V247.84C281.412 249.084 279.519 249.766 277.566 249.777C271.842 249.777 267.187 243.761 267.187 236.367C267.187 228.972 271.842 222.952 277.566 222.952C279.519 222.962 281.412 223.643 282.944 224.887V194.899H310.458C309.223 193.309 308.539 191.341 308.516 189.307C308.516 183.429 314.379 178.647 321.581 178.647C328.784 178.647 334.639 183.431 334.639 189.307C334.616 191.341 333.933 193.309 332.698 194.899H356.486V196.124H329.933L330.957 195.078C332.586 193.41 333.447 191.404 333.447 189.307C333.447 184.105 328.123 179.872 321.581 179.872C315.039 179.872 309.709 184.105 309.709 189.307C309.709 191.416 310.572 193.41 312.201 195.078L313.222 196.124H284.125V227.696L283.109 226.667C281.499 225.038 279.577 224.176 277.554 224.176C272.488 224.176 268.367 229.643 268.367 236.367C268.367 243.09 272.488 248.552 277.554 248.552C279.577 248.552 281.499 247.69 283.109 246.059L284.125 245.033L284.137 270.425Z" fill="#FDF6E6"/>
<path d="M204.395 113.612H203.203V87.1903C201.687 88.3865 199.831 89.0395 197.92 89.0493C192.196 89.0493 187.538 83.0312 187.538 75.6341C187.538 68.237 192.196 62.2238 197.92 62.2238C199.832 62.2324 201.688 62.8855 203.203 64.0829V38.7025H204.395V66.8482L203.384 65.8489C201.798 64.2764 199.909 63.4485 197.92 63.4485C192.854 63.4485 188.731 68.9131 188.731 75.6341C188.731 82.3552 192.854 87.8246 197.92 87.8246C199.909 87.8246 201.798 86.9943 203.384 85.4243L204.395 84.4249V113.612Z" fill="#FDF6E6"/>
<path d="M296.764 330.339H190.569V347.58H296.764V330.339Z" fill="#102048"/>
<path d="M296.168 330.952V346.968H191.166V330.952H296.168ZM297.361 329.727H189.974V348.193H297.361V329.727Z" fill="white"/>
<path d="M222.356 211.702H198.203V209.865H220.567V184.709H222.356V211.702Z" fill="#FDF6E6"/>
<path d="M100.117 369.892C83.6075 362.932 68.8181 352.277 56.8268 338.704C44.8355 325.13 35.9444 308.979 30.8018 291.429L65.7778 293.175C64.1894 291.384 63.2974 289.182 63.4095 286.846C63.6718 281.3 69.4578 277.088 76.3314 277.43C83.205 277.773 88.5712 282.542 88.3089 288.09C88.1968 290.427 87.1021 292.531 85.3539 294.152L103.659 295.068L102.211 325.654C100.656 323.959 98.6645 322.903 96.4608 322.793C91.0659 322.523 86.4176 328.03 86.0837 335.093C85.7498 342.157 89.8544 348.095 95.2516 348.364C97.453 348.474 99.5446 347.629 101.245 346.089L100.117 369.892Z" fill="#FBC343"/>
<path d="M35.1787 318.825V371.731H141.738V318.825H35.1787ZM100.544 334.538C100.542 335.598 100.13 336.615 99.4002 337.365C98.6699 338.115 97.6801 338.537 96.6473 338.54H80.2695C79.2365 338.537 78.2465 338.115 77.5158 337.365C76.7851 336.615 76.3732 335.598 76.37 334.538C76.3732 333.477 76.7851 332.46 77.5158 331.71C78.2465 330.96 79.2365 330.538 80.2695 330.535H96.6473C97.6801 330.538 98.6699 330.96 99.4002 331.71C100.13 332.46 100.542 333.477 100.544 334.538Z" fill="#E5ECFF" stroke="#708CD5" stroke-width="1.41593" stroke-miterlimit="10"/>
<path opacity="0.2" d="M141.738 371.741C141.738 371.741 66.353 366.294 35.1787 318.835V371.741H141.738Z" fill="#1F3C88"/>
<path d="M412.23 38.4332C412.231 39.1949 412.175 39.9557 412.063 40.7086H323.837C323.836 38.0786 324.492 35.4922 325.741 33.1962C326.99 30.9002 328.791 28.9711 330.972 27.5929C333.153 26.2147 335.642 25.4334 338.2 25.3236C340.759 25.2137 343.303 25.7789 345.588 26.9652C346.545 23.8406 348.447 21.1108 351.018 19.1726C353.589 17.2344 356.694 16.1889 359.884 16.188C368.164 16.188 373.462 19.938 373.462 28.4348V28.6161C376.297 29.0593 378.948 30.3353 381.094 32.2902C382.446 25.2066 389.968 22.2992 397.223 23.007C406.84 23.9696 412.23 29.929 412.23 38.4332Z" fill="white" stroke="#8CBFBE" stroke-width="1.41593" stroke-miterlimit="10"/>
<path d="M327.657 217.592C328.513 215.18 327.278 213.737 327.242 212.429C327.207 211.121 327.595 209.958 326.906 209.786C326.217 209.615 325.403 210.693 324.955 216.38L327.657 217.592Z" fill="#F9B384"/>
<path d="M328.415 219.88L327.521 223.586H321.904L318.472 215.709C317.979 214.761 316.638 210.945 316.757 210.141C316.982 208.642 318.761 212.346 318.847 212.419C318.53 211.293 317.454 207.746 317.95 206.945C318.546 205.987 320.356 210.129 320.812 211.383C320.573 210.225 319.271 205.855 319.908 205.221C320.674 204.459 322.45 209.287 322.725 210.798C322.653 209.666 322.121 205.794 322.861 205.899C323.879 206.026 325.658 212.816 325.658 212.816C326.951 214.998 327.883 217.385 328.415 219.88Z" fill="#F9B384"/>
<path d="M319.628 214.705C320.265 214.082 320.988 213.559 321.774 213.154C322.176 212.957 322.602 212.816 323.041 212.735C323.482 212.657 323.934 212.672 324.369 212.779L324.35 212.897C323.502 212.851 322.656 213.034 321.898 213.428C321.132 213.826 320.397 214.285 319.699 214.8L319.628 214.705Z" fill="#E28B6D"/>
<path d="M324.951 214.256C324.775 214.247 324.601 214.288 324.446 214.374C324.292 214.461 324.164 214.59 324.076 214.746C323.935 215.088 323.884 215.462 323.928 215.831C323.956 216.217 324.025 216.598 324.133 216.968C324.232 217.343 324.372 217.705 324.55 218.048L324.457 218.121C324.207 217.802 324.014 217.439 323.885 217.051C323.749 216.665 323.664 216.262 323.632 215.853C323.594 215.43 323.677 215.004 323.871 214.629C323.93 214.535 324 214.449 324.078 214.371C324.166 214.306 324.259 214.249 324.357 214.202C324.458 214.172 324.561 214.15 324.665 214.136H324.97L324.951 214.256Z" fill="#E28B6D"/>
<path d="M348.466 364.939L349.005 357.836H339.678L338.385 360.836C337.843 362.093 337.107 363.25 336.205 364.266C338.969 365.735 343.277 367.366 348.466 364.939Z" fill="#F9B384"/>
<path d="M336.202 364.241C334.896 365.723 333.269 366.869 331.452 367.587L327.283 369.226C327.04 369.384 326.854 369.619 326.752 369.896C326.651 370.173 326.64 370.476 326.72 370.759C326.801 371.043 326.969 371.292 327.2 371.469C327.43 371.646 327.71 371.742 327.998 371.741H344.87C345.704 371.742 346.509 371.419 347.122 370.836C347.735 370.254 348.111 369.456 348.175 368.601L348.454 364.927C343.274 367.366 338.967 365.735 336.202 364.241Z" fill="#102048"/>
<path d="M371.309 364.939L370.768 357.836H380.095L381.388 360.836C381.93 362.093 382.666 363.25 383.568 364.266C380.804 365.735 376.496 367.366 371.309 364.939Z" fill="#F9B384"/>
<path d="M383.569 364.241C384.876 365.723 386.503 366.869 388.32 367.587L392.491 369.226C392.734 369.384 392.92 369.619 393.022 369.896C393.123 370.173 393.134 370.476 393.053 370.759C392.973 371.043 392.805 371.292 392.574 371.469C392.344 371.646 392.063 371.742 391.776 371.741H374.892C374.057 371.741 373.253 371.418 372.64 370.836C372.027 370.254 371.65 369.456 371.584 368.601L371.308 364.927C376.497 367.366 380.805 365.735 383.569 364.241Z" fill="#102048"/>
<path d="M382.439 359.191H366.39L357.671 289.849L353.139 321.355L352.199 359.181H337.124C335.931 329.823 337.439 298.27 342.371 263.9L342.702 258.441L343.084 252.212L373.405 254.497L373.767 258.739L374.471 266.822L382.439 359.191Z" fill="#1F3C88"/>
<path opacity="0.6" d="M374.475 266.849C371.613 271.28 351.715 271.126 342.277 265.703L342.719 258.455L373.783 258.754L374.475 266.849Z" fill="#102048"/>
<path d="M341.529 254.051C341.529 254.051 338.529 262.029 341.105 263.56C343.681 265.091 373.388 265.397 375.74 263.56C378.091 261.723 372.401 257.13 372.942 254.068C373.484 251.007 341.529 254.051 341.529 254.051Z" fill="#708CD5"/>
<path d="M338.988 221.266C337.943 223.637 334.068 230.834 334.068 230.834L328.413 219.88C327.146 220.936 325.653 221.92 321.215 221.984C321.215 221.984 327.595 246.211 333.333 248.702C342.744 252.79 344.96 234.496 344.96 234.496L338.988 221.266Z" fill="#708CD5"/>
<path d="M338.987 221.266L340.521 217.57C341.109 216.085 342.214 214.878 343.621 214.183C343.755 214.119 343.893 214.06 344.034 214.007C346.698 212.97 351.635 211.339 356.217 211.391C357.855 211.391 363.956 211.317 373.866 213.918L376.632 250.274L343.838 249.586L338.987 221.266Z" fill="#708CD5"/>
<path opacity="0.3" d="M368.256 221.266C369.027 234.929 367.954 249.613 360.207 250.561L369.156 253.145L378.765 247.864L374.965 226.356L368.256 221.266Z" fill="#1F3C88"/>
<path d="M369.711 212.924C371.688 213.37 374.989 213.833 376.628 214.981C378.266 216.13 382.888 240.7 384.081 246.365C385.273 252.03 385.571 257.845 361.125 258.764L358.74 251.876L373.05 246.211L367.565 221.259L369.711 212.924Z" fill="#708CD5"/>
<path d="M343.358 223.133C343.529 225.582 343.596 228.054 343.687 230.515L343.761 234.209C343.761 235.434 343.775 236.671 343.761 237.905H343.587C343.496 236.68 343.436 235.456 343.382 234.214L343.257 230.523C343.205 228.059 343.155 225.597 343.195 223.13L343.358 223.133Z" fill="#1F3C88"/>
<path d="M370.624 248.508V249.924L363.8 256.258L363.264 253.647L370.624 248.508Z" fill="#102048"/>
<path d="M362.807 255.34L370.625 248.508L355.907 246.62L362.807 255.34Z" fill="white"/>
<path d="M363.8 256.258H335.497L330.758 233.124H359.061L363.8 256.258Z" fill="#102048"/>
<path d="M348.864 246.316H345.699L345.103 243.066H348.267L348.864 246.316Z" fill="white"/>
<path d="M346.314 187.779C343.14 179.505 356.408 176.443 357.7 183.37C357.7 183.37 361.49 181.349 365.254 183.492C372.506 187.619 367.822 199.251 365.254 199.251L352.155 197.495L346.314 187.779Z" fill="#6F3428"/>
<path d="M362.901 203.459V211.929C362.901 214.256 360.73 216.145 358.042 216.145C355.354 216.145 353.187 214.256 353.187 211.929V203.459H362.901Z" fill="#F9B384"/>
<path d="M360.809 206.636C359.561 208.334 356.885 210.286 353.177 210.33V205.865L360.809 206.636Z" fill="#3C1C16"/>
<path d="M362.903 189.768V204.268C362.903 204.268 360.131 209.105 354.46 208.709C351.646 208.505 350.226 206.698 349.487 203.81C349.184 202.582 348.98 201.33 348.879 200.067C348.664 197.748 348.605 195.061 348.528 192.156V189.768H362.903Z" fill="#F9B384"/>
<path d="M348.639 186.24C346.888 184.673 343.344 185.866 342.302 188.07C340.83 191.183 342.748 194.328 345.235 195.188C348.842 196.437 350.306 192.54 350.306 192.54C350.306 192.54 351.472 194.23 354.067 193.863C355.937 193.598 356.583 191.712 356.583 191.712C356.583 191.712 357.16 196.53 363.319 196.413C364.642 195.95 365.253 190.686 365.253 190.686L361.198 186.348L348.639 186.24Z" fill="#6F3428"/>
<path d="M361.125 258.764C358.101 259.401 354.924 259.778 351.852 259.293C349.944 258.994 348.062 258.313 346.517 257.088C345.217 256.032 344.166 254.687 343.445 253.155C343.276 252.795 343.159 252.263 343.445 251.93C343.731 251.597 344.342 252.175 344.638 252.42C345.638 253.237 346.517 254.2 347.247 255.278C347.247 255.278 344.926 251.359 345.508 250.735C345.954 250.245 346.631 250.37 348.966 254.35C348.966 254.35 349.408 255.33 349.83 254.818C350.068 254.544 348.496 251.462 349.632 251.195C350.5 250.992 351.32 253.89 351.917 255.048C352.663 255.94 353.953 255.048 353.953 255.048L360.25 256.273L361.125 258.764Z" fill="#F9B384"/>
<path d="M353.806 255.247C353.705 254.586 353.532 253.938 353.291 253.316C353.229 253.177 353.182 253.03 353.15 252.88C353.057 252.315 353.548 252.146 353.866 252.261C354.581 252.506 355.232 253.505 355.657 254.274C356.055 254.982 356.223 255.803 356.134 256.616C356.1 256.861 354.066 256.861 353.935 256.567C353.907 256.488 353.893 256.405 353.894 256.322C353.884 255.962 353.854 255.603 353.806 255.247Z" fill="#F9B384"/>
<path d="M356.296 278.281C356.678 280.798 357.047 283.319 357.391 285.842L358.397 293.413L359.323 301.006L359.752 304.802L360.143 308.604L359.905 308.636L359.332 304.859L358.8 301.077L357.803 293.501L356.885 285.908C356.588 283.377 356.312 280.846 356.058 278.315L356.296 278.281Z" fill="#708CD5"/>
<path d="M352.446 218.028C353.218 218.761 354.125 219.329 355.113 219.697C356.101 220.065 357.151 220.226 358.201 220.172C359.246 220.108 360.266 219.819 361.194 219.324C362.131 218.82 362.989 218.174 363.739 217.409L363.868 217.531C363.172 218.397 362.327 219.125 361.376 219.679C360.409 220.235 359.332 220.558 358.226 220.625C357.121 220.691 356.014 220.5 354.991 220.064C353.973 219.643 353.06 218.991 352.322 218.156L352.446 218.028Z" fill="#1F3C88"/>
<path d="M362.214 197.145C362.855 195.509 364.098 195.056 365.314 195.634C367.222 196.555 366.595 201.654 362.214 201.757V197.145Z" fill="#F9B384"/>
<path d="M363.179 198.066C363.136 197.82 363.149 197.567 363.217 197.327C363.285 197.087 363.406 196.867 363.57 196.682C363.663 196.579 363.777 196.497 363.904 196.443C364.03 196.389 364.167 196.363 364.304 196.369C364.56 196.397 364.794 196.527 364.958 196.731L364.853 196.876C364.68 196.797 364.493 196.761 364.304 196.77C364.142 196.792 363.994 196.874 363.887 197.001C363.754 197.144 363.646 197.31 363.567 197.49C363.478 197.679 363.407 197.876 363.353 198.078L363.179 198.066Z" fill="#6F3428"/>
<path d="M351.911 197.997C351.911 198.571 351.603 199.033 351.221 199.033C350.84 199.033 350.532 198.571 350.532 197.997C350.532 197.424 350.84 196.961 351.221 196.961C351.603 196.961 351.911 197.419 351.911 197.997Z" fill="#3C1C16"/>
<path d="M357.748 197.997C357.748 198.571 357.438 199.033 357.056 199.033C356.675 199.033 356.367 198.571 356.367 197.997C356.367 197.424 356.677 196.961 357.056 196.961C357.436 196.961 357.748 197.419 357.748 197.997Z" fill="#3C1C16"/>
<path d="M353.88 198.394C353.949 198.608 353.999 198.827 354.028 199.051C354.042 199.163 354.051 199.276 354.054 199.389C354.07 199.528 354.049 199.67 353.992 199.798C353.82 200.101 353.546 200.148 353.398 200.243C353.251 200.325 353.134 200.454 353.064 200.611C352.991 200.763 352.97 200.935 353.003 201.101C353.036 201.267 353.122 201.417 353.248 201.527C353.498 201.76 353.923 201.794 354.328 201.757L354.369 201.933C354.152 202.032 353.915 202.075 353.678 202.06C353.442 202.044 353.212 201.971 353.009 201.845C352.799 201.684 352.649 201.453 352.586 201.191C352.524 200.929 352.552 200.653 352.666 200.41C352.783 200.171 352.973 199.979 353.207 199.861C353.298 199.859 353.387 199.834 353.467 199.789C353.547 199.744 353.615 199.68 353.666 199.602C353.716 199.524 353.748 199.435 353.758 199.342C353.769 199.249 353.757 199.155 353.725 199.068C353.731 198.855 353.726 198.643 353.71 198.431L353.88 198.394Z" fill="#E28B6D"/>
<path d="M352.299 204.121C352.65 204.232 353.013 204.299 353.379 204.322C353.744 204.352 354.111 204.345 354.474 204.3C354.833 204.266 355.186 204.184 355.523 204.055C355.867 203.922 356.194 203.748 356.496 203.535L356.616 203.665C356.359 203.983 356.04 204.242 355.678 204.425C355.315 204.604 354.925 204.718 354.524 204.763C354.126 204.804 353.725 204.789 353.332 204.718C352.936 204.656 352.557 204.511 352.218 204.292L352.299 204.121Z" fill="#3C1C16"/>
<path d="M349.578 196.481C349.735 196.194 349.949 195.944 350.205 195.746C350.48 195.535 350.817 195.427 351.159 195.44C351.49 195.468 351.81 195.576 352.092 195.756C352.358 195.931 352.599 196.142 352.807 196.386L352.731 196.474C352.484 196.294 352.227 196.131 351.961 195.984C351.708 195.845 351.429 195.761 351.143 195.739C350.577 195.693 350.081 196.094 349.674 196.552L349.578 196.481Z" fill="#3C1C16"/>
<path d="M355.432 196.481C355.615 196.166 355.877 195.906 356.19 195.729C356.512 195.55 356.876 195.465 357.242 195.484C357.954 195.557 358.613 195.907 359.081 196.464L359.002 196.555C358.451 196.165 357.864 195.82 357.225 195.786C356.904 195.769 356.584 195.829 356.29 195.961C355.995 196.093 355.734 196.293 355.527 196.545L355.432 196.481Z" fill="#3C1C16"/>
<path opacity="0.4" d="M359.116 203.528C360.142 203.528 360.974 202.674 360.974 201.62C360.974 200.566 360.142 199.712 359.116 199.712C358.09 199.712 357.258 200.566 357.258 201.62C357.258 202.674 358.09 203.528 359.116 203.528Z" fill="#EE6F57"/>
<path opacity="0.4" d="M351.194 201.916C351.195 202.396 351.019 202.857 350.702 203.208C350.384 203.56 349.949 203.774 349.484 203.81C349.181 202.582 348.978 201.33 348.876 200.067C349.026 200.025 349.181 200.005 349.336 200.006C349.829 200.007 350.301 200.209 350.649 200.567C350.998 200.925 351.194 201.41 351.194 201.916Z" fill="#EE6F57"/>
<path d="M418.873 167.552H395.025C389.024 167.552 384.159 172.548 384.159 178.711V182.233C384.159 188.396 389.024 193.393 395.025 193.393H418.873C424.874 193.393 429.739 188.396 429.739 182.233V178.711C429.739 172.548 424.874 167.552 418.873 167.552Z" fill="#C6EAE9"/>
<path d="M391.093 183.823L380.098 193.392H402.09L391.093 183.823Z" fill="#C6EAE9"/>
<path d="M398.753 182.88C400.047 182.88 401.097 181.802 401.097 180.472C401.097 179.142 400.047 178.064 398.753 178.064C397.458 178.064 396.408 179.142 396.408 180.472C396.408 181.802 397.458 182.88 398.753 182.88Z" fill="white"/>
<path d="M406.951 182.88C408.246 182.88 409.295 181.802 409.295 180.472C409.295 179.142 408.246 178.064 406.951 178.064C405.656 178.064 404.606 179.142 404.606 180.472C404.606 181.802 405.656 182.88 406.951 182.88Z" fill="white"/>
<path d="M415.149 182.88C416.444 182.88 417.494 181.802 417.494 180.472C417.494 179.142 416.444 178.064 415.149 178.064C413.854 178.064 412.805 179.142 412.805 180.472C412.805 181.802 413.854 182.88 415.149 182.88Z" fill="white"/>
<path d="M109.99 227.39C108.798 228.923 105.001 241.951 105.001 241.951C105.001 241.951 108.977 244.508 115.104 243.83C114.877 243.827 109.99 227.39 109.99 227.39Z" fill="#EE6F57"/>
<path d="M122.113 365.904L122.59 359.761H114.527L113.413 362.35C112.942 363.427 112.307 364.419 111.531 365.289C113.919 366.59 117.634 367.998 122.113 365.904Z" fill="#F9B384"/>
<path d="M111.527 365.302C110.399 366.581 108.994 367.57 107.425 368.19L103.826 369.605C103.616 369.741 103.455 369.944 103.367 370.182C103.278 370.421 103.268 370.682 103.337 370.927C103.407 371.172 103.551 371.387 103.75 371.54C103.949 371.693 104.191 371.776 104.439 371.775H119.009C119.731 371.778 120.427 371.499 120.958 370.997C121.489 370.494 121.815 369.803 121.871 369.064L122.11 365.904C117.63 367.999 113.915 366.59 111.527 365.302Z" fill="#102048"/>
<path d="M146.001 365.904L145.524 359.761H153.593L154.707 362.35C155.177 363.427 155.812 364.419 156.588 365.289C154.196 366.59 150.492 367.998 146.001 365.904Z" fill="#F9B384"/>
<path d="M156.585 365.302C157.713 366.581 159.118 367.57 160.687 368.19L164.286 369.605C164.496 369.741 164.657 369.944 164.745 370.182C164.833 370.421 164.844 370.682 164.774 370.927C164.705 371.172 164.56 371.387 164.362 371.54C164.163 371.693 163.921 371.776 163.673 371.775H149.096C148.373 371.778 147.677 371.499 147.146 370.997C146.616 370.494 146.29 369.803 146.234 369.064L145.995 365.904C150.493 367.999 154.197 366.59 156.585 365.302Z" fill="#102048"/>
<path d="M157.074 362.159H140.761L128.902 289.009L125.191 362.159H110.28L111.163 287.061C109.643 280.076 110.137 274.682 112.255 269.024C112.815 267.521 113.452 266.049 114.163 264.615C114.657 263.611 115.196 262.575 115.78 261.517H141.872L142.335 264.615L142.597 266.33L157.074 362.159Z" fill="#708CD5"/>
<path d="M141.796 214.129L134.076 224.064L142.607 227.872L148.231 216.14L145.722 213.791L141.796 214.129Z" fill="#F9B384"/>
<path d="M129.541 225.629H120.683L121.279 213.255H130.137L129.541 225.629Z" fill="#F9B384"/>
<path d="M133.891 203.511C135.811 206.053 136.851 207.356 136.753 207.92C136.656 208.483 135.971 209.691 133.596 209.289C133.696 208.86 133.891 203.511 133.891 203.511Z" fill="#E28B6D"/>
<path d="M134.395 210.781C134.066 212.914 133.152 214.455 131.113 214.665C125.907 215.202 120.958 212.97 120.958 212.97L120.004 201.294L124.605 197.907L133.892 199.335C133.99 201.441 134.369 204.045 134.502 206.506C134.613 207.931 134.577 209.364 134.395 210.781Z" fill="#F9B384"/>
<path d="M130.116 200.893C132.372 203.077 135.084 203.259 136.76 201.784C140.314 198.666 137.989 191.134 130.116 193.946C130.116 193.946 121.434 189.89 116.402 195.239C111.37 200.589 115.195 206.325 108.973 214.749C108.973 214.749 120.857 222.807 134.831 215.18C132.598 211.07 128.201 214.318 128.074 207.413C128.031 207.305 127.38 201.561 130.116 200.893Z" fill="#102048"/>
<path opacity="0.3" d="M143.695 264.62C143.6 265.171 143.218 265.747 142.603 266.335C138.646 270.041 124.81 273.666 112.256 269.029C112.816 267.526 113.453 266.054 114.164 264.62H143.695Z" fill="#1F3C88"/>
<path d="M142.621 266.457C140.797 267.283 121.609 271.459 112.494 266.046C111.8 265.429 110.006 264.846 112.542 261.522C115.077 258.198 111.08 240.469 109.987 227.39C113.367 224.083 117.581 221.814 122.151 220.838C125.769 220.103 129.668 220.421 132.848 220.838C136.027 221.254 141.29 223.441 141.29 223.441L140.885 238.314C140.885 238.314 140.761 239.019 140.604 240.188C140.198 243.154 139.977 246.145 139.943 249.14C139.912 253.402 140.42 257.823 142.285 260.101C145.531 264.089 144.439 265.624 142.621 266.457Z" fill="#EE6F57"/>
<path d="M150.84 232.705L148.641 245.4C148.625 245.395 148.61 245.387 148.598 245.376L145.834 243.583L145.755 243.529C145.714 243.497 145.671 243.467 145.626 243.441L134.93 236.511L130.422 220.566C134.827 221.239 139.647 221.577 142.662 224.38C144.837 226.41 148.39 230.133 150.84 232.705Z" fill="#EE6F57"/>
<path d="M164.786 216.696C164.786 216.696 161.289 240.861 160.683 243.279C160.597 243.612 160.504 243.943 160.385 244.278C159.651 246.402 158.184 248.479 155.291 248.271C154.514 248.184 153.753 247.982 153.032 247.671C151.511 247.033 150.041 246.273 148.637 245.398L150.838 232.705C151.78 233.685 152.562 234.505 153.039 234.983L156.855 215.525L164.786 216.696Z" fill="#F9B384"/>
<path d="M180.648 193.613C173.762 193.613 168.181 198.108 168.181 203.655C168.181 205.995 169.176 208.15 170.845 209.857H140.778V179.137C139.144 180.754 137.105 181.709 134.899 181.709C129.497 181.709 125.12 175.978 125.12 168.904C125.12 161.83 129.506 156.113 134.899 156.113C137.105 156.113 139.144 157.068 140.778 158.685V127.965H171.143C169.295 129.709 168.181 131.982 168.181 134.461C168.181 140.009 173.762 144.503 180.648 144.503C187.533 144.503 193.109 140.001 193.109 134.461C193.109 131.982 191.996 129.709 190.147 127.965H220.52V159.395C222.254 157.357 224.544 156.113 227.067 156.113C232.469 156.113 236.845 161.845 236.845 168.918C236.845 175.992 232.464 181.716 227.067 181.716C224.544 181.716 222.254 180.472 220.52 178.434V209.865H190.445C192.115 208.15 193.109 206.002 193.109 203.663C193.109 198.108 187.528 193.613 180.648 193.613Z" fill="#FBC343"/>
<path d="M156.866 217.365C156.503 214.954 156.964 212.368 157.486 209.436L165.614 209.514C164.557 212.037 166.504 214.56 164.789 216.696L161.032 220.83L156.866 217.365Z" fill="#F9B384"/>
<path d="M148.227 216.14C150.233 214.749 152.467 209.554 152.467 209.554C150.912 209.473 145.277 209.338 143.094 209.554C143.094 209.554 143.109 212.672 141.792 214.129C141.007 214.996 148.227 216.14 148.227 216.14Z" fill="#F9B384"/>
<path d="M129.375 207.097C129.165 205.853 128.457 205.137 127.276 204.775C126.504 204.53 125.438 204.917 125.163 205.818C124.686 207.423 125.423 211.467 129.006 209.661C129.406 209.483 129.633 208.647 129.375 207.097Z" fill="#F9B384"/>
<path d="M112.684 249.339C112.446 247.84 112.207 246.338 111.985 244.837L111.353 240.325L110.778 235.806C110.6 234.297 110.433 232.788 110.287 231.274L110.459 231.25C110.712 232.749 110.95 234.25 111.174 235.752L111.802 240.264L112.369 244.785C112.55 246.292 112.717 247.802 112.868 249.314L112.684 249.339Z" fill="#6F3428"/>
<path opacity="0.3" d="M140.595 240.188C140.189 243.154 139.969 246.145 139.934 249.14C137.311 244.291 136.166 237.315 136.166 237.315C136.166 237.315 138.384 238.75 140.595 240.188Z" fill="#6F3428"/>
<path d="M141.281 223.527C140.776 223.551 140.278 223.656 139.805 223.838C139.341 224.031 138.908 224.293 138.519 224.617C138.127 224.947 137.769 225.316 137.448 225.719C137.12 226.124 136.818 226.551 136.545 226.998L136.385 226.924C136.57 226.408 136.823 225.92 137.138 225.474C137.454 225.02 137.825 224.608 138.243 224.25C138.671 223.902 139.155 223.635 139.674 223.459C140.196 223.296 140.746 223.254 141.286 223.336L141.281 223.527Z" fill="#6F3428"/>
<path d="M124.338 288.516C125.105 288.682 125.882 288.793 126.663 288.849C127.443 288.903 128.226 288.903 129.006 288.849C129.787 288.805 130.566 288.717 131.338 288.587C132.111 288.465 132.884 288.303 133.644 288.097L133.704 288.269C132.96 288.572 132.191 288.807 131.407 288.972C130.621 289.138 129.824 289.245 129.022 289.293C128.221 289.34 127.418 289.316 126.621 289.222C125.824 289.129 125.04 288.947 124.283 288.678L124.338 288.516Z" fill="#1F3C88"/>
<path opacity="0.4" d="M134.395 210.781C134.265 210.809 134.132 210.822 133.999 210.82C133.445 210.801 132.921 210.562 132.536 210.153C132.151 209.744 131.936 209.198 131.936 208.629C131.936 208.06 132.151 207.514 132.536 207.105C132.921 206.696 133.445 206.457 133.999 206.438C134.168 206.437 134.337 206.46 134.5 206.506C134.611 207.931 134.576 209.364 134.395 210.781Z" fill="#EE6F57"/>
<path d="M127.459 206.815C127.261 206.497 127.034 206.169 126.784 206.1C126.718 206.086 126.651 206.085 126.585 206.098C126.52 206.111 126.458 206.138 126.402 206.176C126.25 206.271 126.104 206.378 125.968 206.497L125.837 206.401C125.912 206.197 126.036 206.015 126.197 205.872C126.292 205.788 126.405 205.728 126.527 205.698C126.649 205.667 126.776 205.668 126.898 205.698C127.122 205.781 127.309 205.944 127.425 206.156C127.533 206.342 127.597 206.551 127.611 206.766L127.459 206.815Z" fill="#6F3428"/>
<path d="M118.111 196.209C118.442 194.118 117.059 192.148 115.023 191.808C112.987 191.469 111.069 192.889 110.738 194.98C110.408 197.071 111.79 199.041 113.826 199.381C115.862 199.72 117.781 198.3 118.111 196.209Z" fill="#102048"/>
<path opacity="0.4" d="M160.384 244.29C159.65 246.414 158.183 248.491 155.29 248.283C154.513 248.196 153.752 247.994 153.031 247.683C154.219 244.371 156.709 243.463 160.384 244.29Z" fill="#EE6F57"/>
<path d="M166.031 208.155C165.971 208.468 165.792 208.804 165.714 209.22C165.122 212.368 164.927 212.841 164.927 212.841L162.592 211.616C163.05 209.97 164.214 207.633 164.834 206.842C165.168 206.413 165.387 206.142 165.752 206.489C166.031 206.749 166.191 207.285 166.031 208.155Z" fill="#F9B384"/>
<path d="M166.032 208.155C165.059 207.881 165.555 207.42 165.753 206.489C166.032 206.749 166.192 207.285 166.032 208.155Z" fill="#E28B6D"/>
<path d="M144.593 206.526C144.545 206.84 144.593 207.217 144.538 207.638C144.061 210.803 144.082 211.312 144.082 211.312L146.675 210.979C146.789 209.264 146.465 206.666 146.143 205.708C145.971 205.189 145.854 204.856 145.396 205.056C145.058 205.201 144.729 205.652 144.593 206.526Z" fill="#F9B384"/>
<path d="M144.594 206.526C145.6 206.604 145.288 205.995 145.407 205.056C145.059 205.201 144.73 205.652 144.594 206.526Z" fill="#E28B6D"/>
<path d="M146.72 209.02C146.72 209.281 146.813 209.533 146.983 209.727C147.143 209.911 147.417 210.061 147.565 210.386C147.666 210.689 147.66 211.018 147.55 211.317C147.461 211.599 147.322 211.861 147.14 212.091L147.042 212.027C147.153 211.776 147.239 211.515 147.3 211.246C147.373 211.007 147.373 210.75 147.3 210.511C147.228 210.296 146.983 210.151 146.794 209.896C146.703 209.771 146.64 209.627 146.608 209.474C146.576 209.321 146.577 209.162 146.611 209.01L146.72 209.02Z" fill="#E28B6D"/>
<path d="M163.504 209.377C163.432 209.778 163.228 210.142 162.925 210.406C162.612 210.688 162.223 210.761 162.049 211.04C161.857 211.33 161.75 211.67 161.739 212.02C161.716 212.388 161.757 212.757 161.861 213.11L161.754 213.156C161.572 212.803 161.477 212.41 161.479 212.01C161.468 211.595 161.586 211.186 161.816 210.844C162.092 210.477 162.514 210.403 162.77 210.193C163.054 209.975 163.27 209.677 163.392 209.335L163.504 209.377Z" fill="#E28B6D"/>
<g opacity="0.3">
<path d="M112.639 261.461C113.145 262.102 113.887 262.514 114.631 262.862C115.391 263.202 116.175 263.483 116.975 263.704C117.776 263.939 118.589 264.125 119.41 264.263C120.229 264.416 121.059 264.498 121.891 264.508L121.917 264.753C121.065 264.893 120.198 264.911 119.341 264.804C118.487 264.707 117.643 264.538 116.815 264.299C115.985 264.061 115.18 263.739 114.411 263.339C113.658 262.923 112.885 262.411 112.441 261.595L112.639 261.461Z" fill="#6F3428"/>
</g>
<path d="M57.6926 214.827H81.5402C87.5413 214.827 92.4062 209.831 92.4062 203.668V200.145C92.4062 193.982 87.5413 188.986 81.5402 188.986H57.6926C51.6914 188.986 46.8265 193.982 46.8265 200.145V203.668C46.8265 209.831 51.6914 214.827 57.6926 214.827Z" fill="#D3DFFF"/>
<path d="M85.4734 205.26L96.4706 214.829H74.4785L85.4734 205.26Z" fill="#D3DFFF"/>
<path d="M78.3413 204.259C79.6015 203.953 80.3819 202.656 80.0845 201.362C79.7871 200.068 78.5244 199.266 77.2642 199.572C76.004 199.877 75.2235 201.174 75.521 202.468C75.8184 203.763 77.0811 204.564 78.3413 204.259Z" fill="white"/>
<path d="M70.1479 204.258C71.4081 203.952 72.1886 202.655 71.8911 201.361C71.5937 200.067 70.331 199.265 69.0708 199.571C67.8106 199.876 67.0302 201.173 67.3276 202.467C67.625 203.761 68.8877 204.563 70.1479 204.258Z" fill="white"/>
<path d="M61.9497 204.259C63.2099 203.953 63.9903 202.656 63.6929 201.362C63.3955 200.068 62.1328 199.267 60.8726 199.572C59.6124 199.877 58.8319 201.174 59.1294 202.468C59.4268 203.763 60.6895 204.564 61.9497 204.259Z" fill="white"/>
<path d="M0 371.741H477" stroke="#102048" stroke-width="1.41593" stroke-miterlimit="10"/>
</g>
<defs>
<clipPath id="clip0_454_221">
<rect width="477" height="373" fill="white"/>
</clipPath>
</defs>
</svg>
