<svg width="482" height="405" viewBox="0 0 482 405" fill="none" xmlns="http://www.w3.org/2000/svg">
<g clip-path="url(#clip0_454_987)">
<path d="M181.808 195.644H181.818L188.972 195.668L190.591 210.439L182.241 214.293L173.335 210.484L174.775 195.668L181.808 195.644Z" fill="#F37A50"/>
<path d="M162.152 189.124C166.557 198.743 177.138 204.09 185.773 201.066C194.409 198.043 197.851 187.795 193.448 178.178C189.046 168.561 178.462 163.212 169.827 166.235C161.191 169.259 157.751 179.507 162.152 189.124Z" fill="#F37A50"/>
<path d="M189.69 181.333C189.872 181.563 190.129 181.74 190.427 181.842C190.725 181.945 191.051 181.968 191.364 181.908C191.677 181.849 191.963 181.709 192.185 181.508C192.407 181.306 192.556 181.051 192.613 180.776C192.67 180.5 192.632 180.216 192.504 179.96C192.376 179.703 192.163 179.486 191.894 179.334C191.624 179.183 191.31 179.105 190.989 179.11C190.669 179.116 190.358 179.204 190.095 179.363C189.743 179.578 189.502 179.905 189.426 180.275C189.35 180.644 189.445 181.025 189.69 181.333Z" fill="black"/>
<path d="M177.566 185.66C177.764 185.909 178.042 186.1 178.365 186.211C178.687 186.321 179.04 186.345 179.378 186.281C179.717 186.216 180.026 186.065 180.266 185.847C180.506 185.629 180.667 185.353 180.728 185.055C180.789 184.757 180.748 184.45 180.609 184.172C180.471 183.895 180.241 183.659 179.949 183.496C179.658 183.333 179.317 183.248 178.971 183.254C178.625 183.26 178.288 183.355 178.004 183.528C177.623 183.76 177.362 184.115 177.28 184.515C177.198 184.915 177.301 185.327 177.566 185.66Z" fill="black"/>
<path d="M187.233 183.592C189.42 185.095 192.147 186.92 192.147 186.92C192.147 186.92 192.176 189.225 189.093 190.226C190.209 189.341 191.186 188.164 190.027 186.805C188.867 185.445 187.233 183.592 187.233 183.592Z" fill="#DE623C"/>
<path d="M174.376 184.739C174.255 184.738 174.136 184.714 174.027 184.668C173.918 184.622 173.823 184.556 173.747 184.473C173.672 184.391 173.619 184.295 173.591 184.192C173.564 184.089 173.563 183.983 173.589 183.88C173.872 182.842 175.063 180.873 177.52 180.873C177.735 180.873 177.94 180.947 178.092 181.08C178.243 181.212 178.328 181.392 178.328 181.58C178.328 181.767 178.243 181.947 178.092 182.079C177.94 182.212 177.735 182.286 177.52 182.286C175.695 182.286 175.157 184.189 175.152 184.208C175.107 184.359 175.007 184.492 174.866 184.588C174.726 184.684 174.554 184.737 174.376 184.739Z" fill="#201D40"/>
<path d="M187.996 178.341C187.877 178.342 187.759 178.313 187.657 178.26C187.58 178.221 187.513 178.169 187.459 178.108C187.405 178.046 187.366 177.976 187.343 177.901C187.32 177.827 187.315 177.749 187.326 177.672C187.338 177.595 187.367 177.521 187.411 177.454C187.441 177.411 188.148 176.38 189.485 176.166C190.399 176.018 191.342 176.28 192.291 176.943C192.362 176.991 192.422 177.05 192.466 177.118C192.511 177.186 192.54 177.261 192.551 177.339C192.562 177.417 192.555 177.496 192.53 177.571C192.506 177.647 192.464 177.717 192.408 177.778C192.352 177.84 192.283 177.89 192.204 177.928C192.125 177.965 192.039 177.989 191.95 177.997C191.86 178.004 191.77 177.997 191.684 177.973C191.599 177.95 191.519 177.913 191.45 177.862C190.821 177.433 190.242 177.239 189.731 177.323C189.252 177.429 188.838 177.691 188.573 178.056C188.513 178.143 188.429 178.215 188.328 178.265C188.227 178.315 188.112 178.341 187.996 178.341Z" fill="#201D40"/>
<path d="M156.142 181.94C152.417 172.672 161.488 167.337 161.488 167.337C161.488 167.337 159.055 167.146 158.763 164.159C160.611 164.655 162.592 164.617 164.414 164.051C176.506 160.224 184.832 160.276 184.832 164.799C184.832 166.409 192.819 165.305 192.148 176.136C192.197 175.371 189.343 170.919 186.645 170.475C183.948 170.03 186.385 173.18 180.749 173.857C175.061 174.54 170.88 173.333 167.409 176.136C164.689 178.579 164.016 191.02 164.428 191.77C163.492 190.071 157.778 186.014 156.142 181.94Z" fill="#201D40"/>
<path d="M195.114 183.592C195.114 183.592 195.628 189.236 194.697 190.982C193.729 188.718 191.648 191.117 189.695 191.342C184.973 191.888 176.455 190.511 175.61 196.711C169.842 198.298 164.437 187.494 164.437 187.494C164.105 199.555 174.202 206.392 188.732 204.397C198.306 203.083 199.193 191.433 195.114 183.592Z" fill="#201D40"/>
<path d="M185.163 195.156C184.147 194.933 183.168 194.598 182.249 194.158C182.123 194.099 182.029 193.999 181.987 193.88C181.946 193.76 181.96 193.631 182.027 193.521C182.094 193.411 182.209 193.328 182.345 193.292C182.482 193.255 182.629 193.268 182.755 193.327C184.991 194.37 186.996 194.669 188.711 194.209C190.008 193.845 191.111 193.082 191.814 192.062C191.885 191.962 191.997 191.889 192.127 191.857C192.258 191.826 192.396 191.839 192.516 191.893C192.636 191.947 192.729 192.038 192.775 192.149C192.822 192.26 192.819 192.382 192.767 192.491C191.94 193.734 190.613 194.662 189.045 195.094C187.781 195.422 186.44 195.444 185.163 195.156Z" fill="#DE623C"/>
<path d="M164.303 187.582C166.733 188.783 167.801 191.145 166.679 192.889C165.556 194.633 162.686 195.071 160.257 193.877C157.827 192.683 156.763 190.308 157.881 188.568C158.999 186.828 161.873 186.388 164.303 187.582Z" fill="#F37A50"/>
<path d="M163.932 192.79C164.009 192.743 164.073 192.68 164.119 192.607C164.787 191.534 164.676 190.423 163.826 189.659C163.4 189.278 162.849 189.023 162.25 188.927C161.651 188.831 161.033 188.9 160.48 189.124C160.405 189.154 160.338 189.196 160.282 189.249C160.227 189.302 160.184 189.365 160.157 189.432C160.129 189.5 160.118 189.572 160.123 189.644C160.129 189.716 160.151 189.786 160.188 189.85C160.225 189.914 160.277 189.971 160.34 190.017C160.403 190.063 160.476 190.098 160.555 190.119C160.633 190.14 160.716 190.147 160.798 190.139C160.88 190.131 160.959 190.109 161.03 190.073C161.351 189.953 161.706 189.92 162.049 189.979C162.392 190.037 162.706 190.185 162.952 190.402C163.426 190.831 163.46 191.431 163.045 192.101C162.979 192.206 162.956 192.328 162.98 192.447C163.004 192.565 163.073 192.673 163.175 192.753C163.278 192.833 163.409 192.88 163.546 192.887C163.684 192.893 163.82 192.859 163.932 192.79Z" fill="#DE623C"/>
<path d="M190.089 392.911C191.612 389.297 194.865 388.896 194.865 388.896C201.191 396.526 216.731 391.842 216.212 402.163C192.588 402.03 182.771 402.163 182.771 402.163C182.8 399.801 183.262 394.168 183.812 391.964L185.041 392.162L190.089 392.911Z" fill="black"/>
<path d="M154.742 393.111C156.265 389.497 159.52 389.095 159.52 389.095C165.846 396.725 181.385 392.044 180.867 402.363C157.243 402.23 147.423 402.363 147.423 402.363C147.455 400 147.914 394.367 148.467 392.164L149.695 392.362L154.742 393.111Z" fill="black"/>
<path d="M205.802 272.415C205.802 272.415 209.637 321.316 208.079 332.187C206.522 343.058 201.004 356.998 201.628 392.963C193.926 394.649 182.77 392.963 182.77 392.963C182.77 392.963 181.114 352.303 189.256 334.142C185.946 316.499 175.323 276.093 175.323 276.093L205.802 272.415Z" fill="#201D40"/>
<path d="M191.225 273.75C191.225 273.75 183.481 328.65 179.69 339.064C175.899 349.477 168.504 358.282 161.64 393.706C153.727 394.052 146.356 393.706 146.356 393.706C146.356 393.706 147.423 348.771 159.751 338.553C160.166 320.663 157.756 274.105 157.756 274.105L191.225 273.75Z" fill="#2C2858"/>
<path d="M155.518 211.443C155.518 211.443 168.972 207.329 173.453 209.216C187.39 215.081 190.586 209.216 190.586 209.216C195.041 209.551 208.487 211.443 208.487 211.443C208.487 224.569 209.489 237.74 209.224 247.673C209.029 256.321 210.916 279.86 210.916 279.86C210.916 279.86 196.085 283.257 182.057 283.348C168.026 283.266 153.747 279.997 153.747 279.997C153.747 279.997 154.496 256.16 155.118 247.297C154.917 237.364 155.518 224.535 155.518 211.443Z" fill="#E62552"/>
<path d="M232.414 230.952C226.862 219.372 210.384 212.006 208.502 211.443L204.68 226.311C209.5 228.809 214.07 231.658 218.342 234.828C217.359 238.969 217.529 243.027 214.789 248.263C214.789 248.263 217.17 245.392 220.106 247.091C222.961 248.742 228.213 245.372 228.213 245.372C228.213 245.372 236.645 239.795 232.414 230.952Z" fill="#C4204A"/>
<path d="M229.306 260.214C229.4 260.241 229.497 260.258 229.596 260.266H229.91C230.202 260.239 230.479 260.139 230.706 259.976C230.933 259.813 231.101 259.596 231.188 259.351L245.99 217.635C246.02 217.552 246.04 217.468 246.049 217.381C246.054 217.327 246.054 217.273 246.049 217.218C246.051 217.185 246.051 217.151 246.049 217.117C246.044 217.088 246.038 217.06 246.029 217.031C245.985 216.791 245.866 216.567 245.684 216.383C245.502 216.199 245.265 216.063 245 215.99C244.908 215.965 244.815 215.948 244.72 215.938C244.613 215.927 244.505 215.927 244.398 215.938H207.138L192.206 260.266H229.333L229.306 260.214Z" fill="#95A6DB"/>
<path d="M207.478 215.99C207.098 215.886 206.687 215.918 206.334 216.079C205.981 216.24 205.716 216.517 205.596 216.849L190.892 258.466L190.858 258.565C190.741 258.896 190.779 259.254 190.963 259.561C191.147 259.868 191.462 260.099 191.841 260.203C192.22 260.307 192.632 260.275 192.985 260.114C193.337 259.953 193.603 259.676 193.722 259.344L208.463 217.637C208.522 217.472 208.544 217.299 208.526 217.127C208.508 216.955 208.452 216.788 208.361 216.635C208.269 216.482 208.144 216.346 207.993 216.236C207.841 216.125 207.666 216.041 207.478 215.99Z" fill="#768FDB"/>
<path d="M235.63 242.456C235.767 242.378 235.917 242.321 236.075 242.286C236.06 242.266 236.044 242.246 236.026 242.226C235.1 241.002 235.161 239.542 236.163 238.96C236.327 238.868 236.509 238.802 236.699 238.764C236.439 237.86 236.672 236.995 237.389 236.58C237.675 236.419 238.01 236.338 238.35 236.346C238.023 235.457 238.284 234.523 239.087 234.059C240.092 233.477 241.544 233.844 242.337 234.897C243.131 235.949 242.956 237.259 241.954 237.837C241.704 237.981 241.419 238.07 241.121 238.099C241.789 239.237 241.654 240.483 240.748 241.007C240.585 241.101 240.403 241.168 240.212 241.204C240.475 242.108 240.239 242.972 239.524 243.386C239.26 243.537 238.951 243.619 238.635 243.622C238.967 244.4 238.758 245.237 238.053 245.647C237.205 246.137 235.977 245.821 235.309 244.939C234.64 244.056 234.783 242.946 235.63 242.456Z" fill="#F37A50"/>
<path d="M189.818 239.819L193.216 238.101C193.216 238.101 194.155 233.89 199.604 233.789C198.977 235.554 198.078 238.101 198.078 238.101C198.078 238.101 200.763 239.922 207.131 236.812C213.354 235.59 210.696 239.557 212.76 239.843C215.804 240.272 210.549 245.493 204.326 246.285C196.282 247.32 195.329 245.881 195.329 245.881L190.779 247.271L189.818 239.819Z" fill="#F37A50"/>
<path d="M158.387 244.318C169.74 243.624 189.097 238.734 189.097 238.734C192.197 242.89 191.34 248.398 191.34 248.398C173.707 261.911 147.174 266.279 139.033 263.025C131.598 260.057 136.846 220.504 155.508 211.443C161.917 220.908 158.387 244.318 158.387 244.318Z" fill="#8A284C"/>
<path d="M341.367 389.243C335.041 396.618 319.502 392.093 320.02 402.069C343.645 401.94 353.462 402.069 353.462 402.069C353.433 399.777 352.971 394.337 352.42 392.209L341.367 389.243Z" fill="black"/>
<path d="M376.713 389.435C370.389 396.811 354.848 392.287 355.366 402.262C378.991 402.133 388.81 402.262 388.81 402.262C388.778 399.97 388.319 394.531 387.766 392.402L376.713 389.435Z" fill="black"/>
<path d="M330.439 276.635C330.439 276.635 326.604 323.911 328.164 334.421C329.724 344.931 335.24 358.405 334.613 393.169C342.315 394.799 353.472 393.169 353.472 393.169C353.472 393.169 355.127 353.869 346.986 336.302C350.297 319.248 360.92 280.187 360.92 280.187L330.439 276.635Z" fill="#201D40"/>
<path d="M345.009 277.927C345.009 277.927 352.755 331.002 356.556 341.065C360.356 351.129 367.741 359.644 374.603 393.895C382.519 394.23 391.95 392.527 391.95 392.527C391.95 392.527 388.82 350.454 376.495 340.576C376.077 323.281 378.487 278.271 378.487 278.271L345.009 277.927Z" fill="#2C2858"/>
<path d="M376.552 191.098C372.354 200.268 362.271 205.364 354.031 202.48C345.791 199.595 342.516 189.828 346.715 180.658C350.913 171.488 360.996 166.39 369.234 169.276C377.471 172.163 380.749 181.928 376.552 191.098Z" fill="#F37A50"/>
<path d="M350.298 183.669C350.124 183.888 349.879 184.057 349.595 184.155C349.311 184.252 349 184.274 348.702 184.217C348.404 184.16 348.132 184.027 347.92 183.835C347.708 183.643 347.567 183.4 347.513 183.138C347.459 182.875 347.495 182.605 347.617 182.36C347.739 182.116 347.941 181.908 348.198 181.764C348.455 181.62 348.755 181.546 349.06 181.551C349.365 181.556 349.662 181.64 349.912 181.792C350.248 181.997 350.477 182.309 350.55 182.661C350.622 183.013 350.531 183.376 350.298 183.669Z" fill="black"/>
<path d="M361.856 187.795C361.667 188.031 361.402 188.214 361.094 188.319C360.787 188.424 360.45 188.447 360.128 188.385C359.805 188.323 359.51 188.179 359.282 187.971C359.053 187.763 358.899 187.5 358.841 187.216C358.783 186.931 358.823 186.638 358.955 186.374C359.088 186.109 359.307 185.885 359.585 185.729C359.864 185.574 360.188 185.493 360.519 185.499C360.849 185.505 361.17 185.596 361.441 185.761C361.621 185.871 361.775 186.01 361.893 186.172C362.011 186.333 362.092 186.514 362.131 186.703C362.169 186.891 362.165 187.085 362.118 187.272C362.071 187.46 361.982 187.637 361.856 187.795Z" fill="black"/>
<path d="M352.641 185.823C350.555 187.26 347.946 188.995 347.946 188.995C347.946 188.995 347.919 191.194 350.86 192.148C349.796 191.304 348.863 190.183 349.968 188.886C351.074 187.589 352.641 185.823 352.641 185.823Z" fill="#DE623C"/>
<path d="M364.898 186.914C364.727 186.912 364.561 186.861 364.428 186.767C364.294 186.674 364.2 186.544 364.161 186.399C364.138 186.326 363.623 184.571 361.903 184.565C361.798 184.57 361.693 184.556 361.595 184.525C361.496 184.493 361.406 184.444 361.329 184.381C361.253 184.318 361.192 184.242 361.151 184.158C361.109 184.074 361.088 183.983 361.088 183.891C361.088 183.8 361.109 183.709 361.151 183.625C361.192 183.54 361.253 183.464 361.329 183.401C361.406 183.338 361.496 183.289 361.595 183.258C361.693 183.227 361.798 183.213 361.903 183.218C364.251 183.218 365.382 185.097 365.652 186.085C365.68 186.184 365.682 186.288 365.657 186.388C365.632 186.487 365.582 186.581 365.509 186.661C365.436 186.741 365.344 186.806 365.238 186.849C365.133 186.893 365.017 186.915 364.9 186.914H364.898Z" fill="black"/>
<path d="M351.914 180.815C351.803 180.816 351.693 180.791 351.596 180.743C351.5 180.695 351.419 180.626 351.361 180.542C351.107 180.192 350.709 179.94 350.248 179.838C349.757 179.763 349.214 179.937 348.617 180.353C348.484 180.446 348.315 180.489 348.145 180.473C347.976 180.456 347.822 180.382 347.716 180.265C347.609 180.149 347.56 180.001 347.579 179.853C347.598 179.705 347.683 179.57 347.816 179.477C348.72 178.844 349.62 178.595 350.489 178.736C350.896 178.818 351.28 178.969 351.619 179.181C351.959 179.393 352.247 179.661 352.467 179.971C352.553 180.099 352.577 180.252 352.534 180.396C352.491 180.54 352.385 180.663 352.238 180.738C352.14 180.789 352.028 180.816 351.914 180.815Z" fill="black"/>
<path d="M373.622 192.055C370.588 183.521 374.426 178.987 374.426 178.987C371.819 178.532 370.807 179.32 370.807 179.32C369.384 176.769 370.487 174.939 370.487 174.939C365.1 173.103 362.417 176.153 357.555 177.181C350.9 178.588 342.677 176.266 341.908 169.165C341.882 168.935 341.932 168.704 342.052 168.498C342.172 168.292 342.356 168.121 342.583 168.003C342.81 167.886 343.071 167.827 343.335 167.835C343.598 167.842 343.854 167.916 344.072 168.046C345.139 168.68 346.408 169.004 347.698 168.971C346.824 168.042 346.308 166.895 346.224 165.694C346.219 165.46 346.291 165.23 346.432 165.031C346.573 164.832 346.777 164.673 347.019 164.573C347.261 164.473 347.532 164.437 347.797 164.469C348.062 164.5 348.311 164.599 348.514 164.751C349.897 165.756 352.467 166.708 357.044 165.958C360.09 165.46 367.063 161.195 371.409 162.028C374.959 162.709 377.777 165.35 378.99 169.132C378.99 169.132 387.719 169.923 388.596 178.322C389.456 186.573 378.524 192.904 378.524 192.904L373.622 192.055Z" fill="black"/>
<path d="M372.434 190.632C370.122 191.776 369.117 194.044 370.189 195.698C371.26 197.351 374.004 197.764 376.316 196.619C378.628 195.474 379.632 193.207 378.561 191.551C377.49 189.895 374.746 189.487 372.434 190.632Z" fill="#F37A50"/>
<path d="M372.807 195.595C372.734 195.549 372.674 195.489 372.63 195.421C371.989 194.392 372.087 193.342 372.896 192.609C373.3 192.243 373.825 191.996 374.397 191.902C374.97 191.809 375.561 191.874 376.09 192.088C376.218 192.153 376.313 192.258 376.356 192.382C376.398 192.506 376.385 192.64 376.319 192.756C376.252 192.872 376.137 192.962 375.998 193.006C375.859 193.051 375.705 193.047 375.569 192.996C375.262 192.882 374.923 192.851 374.596 192.908C374.269 192.965 373.969 193.108 373.736 193.316C373.286 193.722 373.245 194.297 373.655 194.933C373.717 195.034 373.739 195.15 373.717 195.262C373.694 195.375 373.629 195.478 373.532 195.554C373.435 195.631 373.311 195.676 373.18 195.684C373.049 195.691 372.92 195.66 372.812 195.595H372.807Z" fill="#DE623C"/>
<path d="M348.426 195.079C348.376 195.008 348.352 194.925 348.355 194.841C348.358 194.758 348.389 194.677 348.444 194.608C348.499 194.54 348.576 194.487 348.665 194.456C348.754 194.425 348.851 194.418 348.945 194.435C350.458 194.721 351.988 194.931 353.529 195.064C355.073 195.171 356.622 195.202 358.17 195.156C358.266 195.154 358.361 195.176 358.444 195.22C358.526 195.264 358.591 195.328 358.632 195.405C358.672 195.481 358.686 195.567 358.672 195.65C358.657 195.733 358.615 195.811 358.551 195.874C357.664 196.733 355.885 198.021 353.249 197.826C350.613 197.63 349.112 196.084 348.426 195.079Z" fill="white"/>
<path d="M337.336 207.093C337.336 207.093 337.731 206.158 303.732 206.399L294.617 215.816C304.051 222.428 335.645 223.603 335.645 223.603L337.336 207.093Z" fill="#201D40"/>
<path d="M349.691 206.328L360.415 205.454L370.788 207.982L359.098 218.496L349.691 206.328Z" fill="#95A6DB"/>
<path d="M353.408 211.153C357.779 214.289 358.671 216.456 367.955 212.264L369.345 199.789L354.234 198.747L353.408 211.153Z" fill="#F37A50"/>
<path d="M373.54 213.002L370.361 211.903L370.786 207.982L361.971 214.169L359.483 214.514L357.104 213.786L349.69 206.328L349.309 210.254L346.506 210.745L336.394 212.176L335.19 261.236L331.2 277.927C344.619 281.829 359.623 282.802 374.373 281.024L373.882 264.273L384.36 216.327L373.54 213.002Z" fill="#95A6DB"/>
<path d="M357.545 219.473L351.212 256.931L354.72 261.189L359.292 258.118L360.847 219.782L357.545 219.473Z" fill="#2C2858"/>
<path d="M357.169 215.049L359.483 214.517L361.842 215.416L360.844 219.858L357.525 219.596L357.169 215.049Z" fill="#2C2858"/>
<path d="M349.544 206.642L347.955 251.888L341.103 281.024C341.103 281.024 330.268 280.071 323.61 274.532L332.143 252.599L335.059 206.762L349.544 206.642Z" fill="#2C2858"/>
<path d="M349.543 206.642L347.963 251.283L340.077 217.072L349.543 206.642Z" fill="#494C7F"/>
<path d="M371.597 209.534L357.527 282.89C357.527 282.89 376.199 284.896 383.876 280.483L379.7 256.368L384.793 215.429L371.597 209.534Z" fill="#2C2858"/>
<path d="M371.599 209.536L363.376 252.53L378.102 220.092L371.599 209.536Z" fill="#494C7F"/>
<path d="M278.625 166.397C279.362 168.684 279.608 171.153 282.917 172.386C282.917 172.386 282.426 179.982 282.794 186.212C282.794 186.212 290.83 178.29 290.828 178.283C290.369 175.773 289.995 171.022 290.437 168.327C290.553 167.627 290.71 166.931 290.835 166.229C291.182 164.526 291.754 162.782 290.568 160.727C285.981 152.781 287.524 150.172 286.882 149.775C285.856 149.377 283.443 150.977 284.806 154.879C286.128 158.655 285.789 160.508 285.789 160.508C285.789 160.508 282.323 159.937 281.094 160.996C280.566 161.489 277.751 163.721 278.625 166.397Z" fill="#F37A50"/>
<path d="M280.491 177.1C285.174 175.736 287.64 175.122 291.284 175.122C299.895 197.553 306.025 206.006 303.472 212.446C301.337 217.815 294.583 217.386 291.284 213.361C286.926 208.054 283.071 187.893 280.491 177.1Z" fill="#201D40"/>
<path d="M384.803 215.429L411.931 252.53L444.154 268.435L434.221 277.077L401.895 264.692L379.71 237.33L384.803 215.429Z" fill="#201D40"/>
<path d="M359.484 214.515C359.484 214.515 355.494 218.037 351.824 218.939L347.485 208.91L349.696 206.333L359.484 214.515Z" fill="white"/>
<path d="M359.483 214.514C361.15 216.804 363.426 218.706 366.117 220.059L372.431 210.894L370.782 207.981L359.483 214.514Z" fill="white"/>
<path d="M389.011 320.135H152.133C146.566 320.135 142.061 317.481 142.061 314.206C142.061 310.931 146.574 308.277 152.133 308.277H389.011C394.578 308.277 399.084 310.931 399.084 314.206C399.093 317.481 394.578 320.135 389.011 320.135Z" fill="#95A6DB"/>
<path d="M240.914 403.69C240.338 403.691 239.772 403.556 239.277 403.298C238.781 403.041 238.375 402.671 238.1 402.228C237.826 401.785 237.694 401.286 237.718 400.782C237.742 400.279 237.921 399.791 238.236 399.369L300.781 315.587L306.134 318.641L243.592 402.423C243.302 402.812 242.905 403.132 242.437 403.354C241.97 403.575 241.446 403.691 240.914 403.69Z" fill="#95A6DB"/>
<path d="M300.232 403.69C300.808 403.691 301.374 403.555 301.869 403.297C302.364 403.04 302.77 402.67 303.044 402.227C303.319 401.784 303.451 401.285 303.427 400.782C303.403 400.279 303.223 399.791 302.908 399.369L240.366 315.587L235.01 318.641L297.554 402.423C297.845 402.812 298.242 403.132 298.709 403.354C299.177 403.575 299.701 403.691 300.232 403.69Z" fill="#95A6DB"/>
<path d="M398.439 402.363C397.627 402.363 396.849 402.081 396.275 401.579C395.7 401.077 395.378 400.397 395.378 399.687V352.263H401.503V399.687C401.503 400.039 401.423 400.387 401.269 400.712C401.115 401.036 400.89 401.331 400.605 401.58C400.321 401.828 399.983 402.025 399.611 402.16C399.24 402.294 398.841 402.363 398.439 402.363Z" fill="#768FDB"/>
<path d="M419.926 402.363C419.115 402.363 418.336 402.081 417.762 401.579C417.188 401.077 416.865 400.397 416.865 399.687V352.263H422.988V399.687C422.988 400.397 422.665 401.077 422.091 401.579C421.517 402.081 420.738 402.363 419.926 402.363Z" fill="#768FDB"/>
<path d="M448.117 402.363C447.715 402.363 447.317 402.294 446.945 402.16C446.573 402.025 446.236 401.828 445.951 401.58C445.667 401.331 445.441 401.036 445.287 400.712C445.133 400.387 445.054 400.039 445.054 399.687V352.263H451.178V399.687C451.178 400.397 450.856 401.077 450.282 401.579C449.708 402.081 448.929 402.363 448.117 402.363Z" fill="#768FDB"/>
<path d="M469.604 402.363C468.792 402.363 468.014 402.081 467.44 401.579C466.865 401.077 466.543 400.397 466.543 399.687V352.263H472.668V399.687C472.668 400.039 472.588 400.387 472.434 400.712C472.28 401.036 472.055 401.331 471.77 401.58C471.486 401.828 471.148 402.025 470.776 402.16C470.405 402.294 470.006 402.363 469.604 402.363Z" fill="#768FDB"/>
<path d="M435.725 281.881V338.316C435.725 338.625 435.585 338.92 435.336 339.138C435.086 339.356 434.748 339.478 434.396 339.478H394.368C392.428 339.478 390.568 340.152 389.196 341.351C387.824 342.55 387.054 344.176 387.054 345.871C387.054 347.567 387.825 349.192 389.197 350.391C390.568 351.589 392.428 352.263 394.368 352.263H443.039C444.978 352.263 446.838 351.589 448.209 350.391C449.58 349.192 450.35 347.567 450.35 345.871V281.875C450.35 280.179 449.58 278.554 448.209 277.355C446.838 276.157 444.978 275.483 443.039 275.483C442.078 275.483 441.126 275.649 440.239 275.97C439.351 276.292 438.545 276.763 437.865 277.357C437.186 277.952 436.648 278.657 436.28 279.433C435.913 280.209 435.724 281.041 435.725 281.881Z" fill="#95A6DB"/>
<path d="M474.687 275.49H443.039V340.516H474.687V275.49Z" fill="#95A6DB"/>
<path d="M467.372 281.881V338.316C467.372 338.625 467.232 338.92 466.983 339.138C466.734 339.356 466.396 339.478 466.043 339.478H426.005C424.065 339.478 422.205 340.152 420.834 341.351C419.462 342.55 418.691 344.176 418.691 345.871C418.692 347.567 419.463 349.192 420.834 350.391C422.206 351.589 424.066 352.263 426.005 352.263H474.676C476.615 352.262 478.475 351.589 479.846 350.39C481.217 349.192 481.987 347.566 481.988 345.871V281.875C481.987 280.18 481.217 278.554 479.846 277.356C478.475 276.158 476.615 275.484 474.676 275.483C472.738 275.486 470.879 276.161 469.509 277.361C468.14 278.56 467.371 280.186 467.372 281.881Z" fill="#768FDB"/>
<path d="M139.707 402.363C140.519 402.363 141.297 402.081 141.871 401.579C142.445 401.077 142.768 400.397 142.768 399.687V352.263H136.646V399.687C136.646 400.397 136.968 401.077 137.542 401.579C138.116 402.081 138.895 402.363 139.707 402.363Z" fill="#768FDB"/>
<path d="M118.22 402.363C118.623 402.363 119.021 402.294 119.393 402.16C119.764 402.025 120.102 401.828 120.386 401.58C120.671 401.331 120.897 401.036 121.051 400.712C121.205 400.387 121.284 400.039 121.284 399.687V352.263H115.159V399.687C115.159 400.397 115.482 401.077 116.056 401.579C116.63 402.081 117.408 402.363 118.22 402.363Z" fill="#768FDB"/>
<path d="M90.0289 402.363C90.8408 402.363 91.6194 402.081 92.1934 401.579C92.7675 401.077 93.09 400.397 93.09 399.687V352.263H86.9727V399.687C86.9727 400.396 87.2945 401.076 87.8675 401.578C88.4405 402.079 89.2179 402.362 90.0289 402.363Z" fill="#768FDB"/>
<path d="M68.5465 402.363C69.3584 402.363 70.137 402.081 70.7111 401.579C71.2852 401.077 71.6077 400.397 71.6077 399.687V352.263H65.4805V399.687C65.4805 400.039 65.5598 400.387 65.714 400.712C65.8681 401.037 66.094 401.332 66.3788 401.581C66.6636 401.829 67.0016 402.026 67.3736 402.16C67.7455 402.295 68.1441 402.363 68.5465 402.363Z" fill="#768FDB"/>
<path d="M102.421 281.881V338.316C102.422 338.625 102.562 338.92 102.812 339.138C103.062 339.356 103.4 339.478 103.753 339.478H143.781C144.741 339.478 145.693 339.643 146.58 339.964C147.468 340.286 148.274 340.756 148.953 341.35C149.633 341.944 150.171 342.649 150.539 343.425C150.906 344.2 151.095 345.032 151.095 345.871C151.095 347.567 150.324 349.192 148.953 350.391C147.582 351.589 145.722 352.263 143.783 352.263H95.1097C93.1704 352.263 91.3105 351.589 89.9389 350.391C88.5674 349.192 87.7965 347.567 87.7959 345.871V281.875C87.7965 280.179 88.5674 278.554 89.9389 277.355C91.3105 276.157 93.1704 275.483 95.1097 275.483C96.0705 275.483 97.0218 275.649 97.9094 275.971C98.7969 276.292 99.6032 276.763 100.282 277.358C100.961 277.952 101.5 278.657 101.867 279.433C102.234 280.209 102.422 281.041 102.421 281.881Z" fill="#95A6DB"/>
<path d="M63.4602 340.515H95.1084L95.1084 275.49H63.4602L63.4602 340.515Z" fill="#95A6DB"/>
<path d="M70.7721 281.881V338.316C70.7728 338.625 70.9134 338.92 71.163 339.138C71.4127 339.356 71.751 339.478 72.1037 339.478H112.132C113.092 339.478 114.043 339.644 114.93 339.965C115.818 340.286 116.624 340.757 117.303 341.351C117.982 341.945 118.52 342.649 118.888 343.425C119.255 344.201 119.444 345.032 119.443 345.871C119.443 347.567 118.673 349.192 117.302 350.391C115.931 351.589 114.071 352.263 112.132 352.263H63.4608C61.5217 352.263 59.662 351.589 58.2909 350.391C56.9197 349.192 56.1494 347.567 56.1494 345.871V281.875C56.1494 280.179 56.9197 278.554 58.2909 277.355C59.662 276.157 61.5217 275.483 63.4608 275.483C64.4215 275.483 65.3729 275.649 66.2604 275.971C67.148 276.292 67.9543 276.763 68.6333 277.358C69.3123 277.952 69.8507 278.657 70.2177 279.433C70.5847 280.209 70.7731 281.041 70.7721 281.881Z" fill="#768FDB"/>
<path d="M419.44 260.315C412.686 258.185 402.242 253.529 409.188 245.02C416.133 236.512 415.944 240.225 413.448 229.889C410.952 219.553 419.359 211.42 427.375 213.479C435.392 215.539 437.448 221.211 447.26 219.772C457.073 218.333 465.249 226.369 461.551 233.333C457.854 240.298 456.274 243.642 459.731 247.507C463.188 251.373 478.771 255.515 472.261 264.752C465.75 273.989 462.782 273.422 465.04 278.155C467.298 282.888 462.092 288.281 453.058 287.544C444.025 286.807 435.849 283.822 432.537 275.007C429.225 266.191 419.44 260.315 419.44 260.315Z" fill="#2C2858"/>
<path d="M395.544 394.572L390.208 395.965L386.191 392.37C386.383 392.121 386.191 389.716 385.577 387.152L395.544 385.713C395.945 388.363 395.544 391.889 395.544 394.572Z" fill="#F37A50"/>
<path d="M390.249 395.126C388.979 392.213 386.267 391.889 386.267 391.889C380.995 398.035 368.047 394.264 368.477 402.578C388.166 402.472 396.347 402.578 396.347 402.578C396.322 400.668 395.932 396.135 395.477 394.363L394.453 394.522L390.249 395.126Z" fill="#E62552"/>
<path d="M360.053 395.439L354.496 395.77L351.302 392.795C351.547 392.581 352.157 388.906 352.196 386.286L361.561 386.649C361.255 389.602 360.752 392.537 360.053 395.439Z" fill="#F37A50"/>
<path d="M355.1 395.126C353.83 392.213 351.117 391.889 351.117 391.889C345.845 398.035 332.898 394.264 333.328 402.578C353.016 402.472 361.198 402.578 361.198 402.578C361.173 400.668 360.782 396.135 360.328 394.363L359.303 394.522L355.1 395.126Z" fill="#E62552"/>
<path d="M416.245 314.219C401.077 316.003 358.346 329.847 355.963 332.351C351.049 337.524 353.636 365.67 351.295 388.896L363.716 389.54C369.667 370.626 369.193 362.463 371.883 340.769C371.883 340.769 420.701 343.965 438.341 333.555C456.536 322.82 428.511 311.676 416.245 314.219Z" fill="#0E6A41"/>
<path d="M396.477 286.644C400.062 287.179 401.442 289.694 402.307 294.324C388.65 301.357 368.362 301.858 368.362 301.858L361.896 299.066C361.896 299.066 378.164 293.94 396.477 286.644Z" fill="#DE623C"/>
<path d="M433.82 273.411C427.842 281.003 404.948 297.328 401.144 297.841L396.553 286.61C396.553 286.61 418.909 265.459 422.978 261.722C430.019 255.234 443.605 261.032 433.82 273.411Z" fill="#DE623C"/>
<path d="M408.642 272.196C413.435 267.686 419.677 257.494 427.804 258.217C435.931 258.941 436.514 266.477 434.067 270.533C431.62 274.59 423.164 284.589 423.164 284.589L408.642 272.196Z" fill="#FF4F78"/>
<path d="M410.113 291.294C413.552 292.331 415.518 301.817 414.554 302.536C399.794 307.645 369.084 302.12 369.084 302.12L367.453 297.257C367.453 297.257 390.707 296.012 410.113 291.294Z" fill="#F37A50"/>
<path d="M458.682 322.188C455.307 306.966 453.852 301.572 452.45 294.408C448.985 276.701 459.174 264.258 441.706 255.773L428.975 257.566C418.684 267.033 412.345 275.625 411.802 281.561C411.065 289.217 419.747 293.373 419.747 293.373L416.249 314.219C416.249 314.219 415.428 315.92 429.783 318.299C444.138 320.679 458.682 322.188 458.682 322.188Z" fill="#E62552"/>
<path d="M448.215 275.569C442.238 283.249 416.7 302.766 412.862 302.94L410.113 291.294C410.113 291.294 433.315 267.527 437.384 263.745C444.415 257.184 457.998 263.049 448.215 275.569Z" fill="#F37A50"/>
<path d="M423.798 275.623C428.257 269.951 437.254 259.486 445.376 260.21C453.498 260.934 454.085 268.469 451.638 272.526C449.191 276.583 440.75 286.582 440.75 286.582L423.798 275.623Z" fill="#FF4F78"/>
<path d="M367.452 297.257C362.758 296.248 352.55 293.25 348.439 302.648C349.469 304.366 353.25 300.116 354.874 299.72C357.451 299.093 359.662 300.277 361.61 301.907C364.408 304.243 369.084 302.121 369.084 302.121L367.452 297.257Z" fill="#F37A50"/>
<path d="M363.8 308.186H319.693V303.009H369.723C369.723 303.688 369.57 304.362 369.272 304.99C368.975 305.618 368.538 306.189 367.988 306.67C367.438 307.151 366.785 307.532 366.067 307.792C365.348 308.052 364.578 308.186 363.8 308.186Z" fill="#FF4F78"/>
<path d="M297.028 275.655L319.694 308.186L324.937 305.777L299.502 268.671C298.115 269.312 297.076 270.407 296.613 271.716C296.149 273.025 296.298 274.442 297.028 275.655Z" fill="#FF4F78"/>
<path d="M447.53 241.269C445.385 249.099 437.948 254.253 430.907 252.782C423.866 251.311 419.908 243.762 422.063 235.936C424.218 228.111 431.644 222.954 438.686 224.425C445.727 225.896 449.675 233.439 447.53 241.269Z" fill="#F37A50"/>
<path d="M444.121 245.394L432.429 251.729C432.429 251.729 431.393 256.239 430.874 257.71C429.805 260.734 433.898 262.057 437.36 260.173C440.822 258.29 441.701 255.773 441.701 255.773L444.121 245.394Z" fill="#F37A50"/>
<path d="M421.248 232.947C424.572 233.196 431.768 232.693 434.394 229.972C436.266 235.496 444.221 240.755 450.801 243.221C451.063 237.553 451.017 227.114 439.391 222.793C430.259 219.389 421.248 232.947 421.248 232.947Z" fill="#2C2858"/>
<path d="M425.349 237.994C425.238 238.188 425.064 238.35 424.848 238.457C424.632 238.565 424.384 238.615 424.136 238.599C423.888 238.584 423.65 238.505 423.454 238.372C423.257 238.239 423.11 238.058 423.031 237.852C422.952 237.646 422.945 237.424 423.01 237.214C423.075 237.004 423.21 236.816 423.398 236.673C423.586 236.53 423.818 236.44 424.064 236.412C424.311 236.384 424.561 236.421 424.784 236.518C425.083 236.649 425.31 236.877 425.416 237.154C425.521 237.43 425.498 237.732 425.349 237.994Z" fill="black"/>
<path d="M435.231 240.124C435.111 240.334 434.922 240.509 434.688 240.626C434.455 240.743 434.187 240.797 433.918 240.78C433.649 240.764 433.393 240.678 433.18 240.534C432.967 240.39 432.807 240.194 432.722 239.971C432.636 239.748 432.628 239.508 432.699 239.281C432.77 239.054 432.916 238.85 433.119 238.696C433.322 238.541 433.573 238.443 433.84 238.413C434.107 238.383 434.378 238.423 434.619 238.528C434.779 238.598 434.922 238.694 435.039 238.812C435.156 238.93 435.246 239.067 435.303 239.215C435.36 239.363 435.383 239.52 435.37 239.676C435.358 239.832 435.31 239.984 435.231 240.124Z" fill="black"/>
<path d="M436.736 239.138C436.64 239.097 436.563 239.028 436.518 238.943C435.835 237.654 433.992 237.405 433.973 237.403C433.848 237.387 433.737 237.328 433.662 237.24C433.587 237.152 433.554 237.041 433.572 236.933C433.59 236.825 433.656 236.727 433.756 236.661C433.856 236.596 433.981 236.567 434.105 236.583C434.203 236.593 436.476 236.894 437.378 238.595C437.43 238.695 437.435 238.808 437.391 238.911C437.348 239.014 437.26 239.098 437.147 239.145C437.082 239.171 437.012 239.184 436.941 239.183C436.87 239.181 436.8 239.166 436.736 239.138Z" fill="#2C2858"/>
<path d="M422.605 236.4C422.558 236.38 422.516 236.353 422.48 236.321C422.391 236.243 422.342 236.137 422.342 236.027C422.342 235.918 422.391 235.812 422.48 235.734C422.906 235.368 423.438 235.109 424.02 234.984C424.601 234.86 425.209 234.875 425.782 235.028C425.9 235.063 425.998 235.139 426.053 235.237C426.108 235.336 426.116 235.449 426.075 235.553C426.035 235.657 425.948 235.742 425.836 235.79C425.723 235.838 425.593 235.845 425.475 235.81C425.069 235.707 424.64 235.701 424.23 235.792C423.821 235.882 423.447 236.066 423.146 236.325C423.076 236.385 422.986 236.425 422.889 236.438C422.792 236.452 422.693 236.438 422.605 236.4Z" fill="#2C2858"/>
<path d="M426.158 240.386C425.468 241.007 424.864 241.647 424.193 242.01C424.085 242.069 424.008 242.163 423.978 242.271C423.948 242.379 423.967 242.493 424.031 242.589C424.562 243.414 426.117 244.093 427.07 244.447C427.099 244.458 427.131 244.459 427.161 244.451C427.191 244.443 427.217 244.425 427.234 244.402C427.25 244.379 427.257 244.351 427.253 244.324C427.249 244.297 427.233 244.272 427.21 244.254C426.247 243.515 425.834 242.965 425.66 242.675C425.617 242.602 425.595 242.522 425.595 242.44C425.595 242.358 425.617 242.278 425.66 242.205C425.856 241.864 426.249 241.168 426.515 240.594C426.529 240.554 426.528 240.511 426.512 240.471C426.496 240.432 426.466 240.397 426.425 240.374C426.385 240.351 426.338 240.339 426.29 240.341C426.242 240.343 426.196 240.359 426.158 240.386Z" fill="#DE623C"/>
<path d="M444.144 241.32C442.425 242.482 441.933 244.415 443.019 245.639C444.105 246.863 446.375 246.91 448.085 245.749C449.795 244.587 450.296 242.652 449.21 241.428C448.124 240.204 445.854 240.156 444.144 241.32Z" fill="#F37A50"/>
<path d="M445.117 245.285C445.051 245.256 444.994 245.214 444.95 245.162C444.294 244.398 444.232 243.541 444.785 242.866C445.061 242.531 445.45 242.278 445.898 242.144C446.345 242.009 446.83 242 447.284 242.117C447.346 242.132 447.404 242.158 447.454 242.193C447.504 242.228 447.546 242.271 447.576 242.321C447.607 242.371 447.625 242.425 447.631 242.481C447.636 242.537 447.629 242.593 447.609 242.647C447.588 242.7 447.556 242.749 447.513 242.792C447.471 242.834 447.419 242.868 447.36 242.892C447.302 242.916 447.239 242.929 447.175 242.931C447.11 242.933 447.046 242.923 446.986 242.903C446.724 242.843 446.447 242.854 446.191 242.933C445.936 243.013 445.714 243.158 445.554 243.35C445.247 243.726 445.308 244.192 445.706 244.664C445.782 244.752 445.814 244.862 445.797 244.971C445.779 245.079 445.713 245.178 445.613 245.244C445.542 245.289 445.459 245.316 445.371 245.323C445.284 245.331 445.196 245.317 445.117 245.285Z" fill="#DE623C"/>
<path d="M433.218 316.637C418.05 318.422 375.253 330.547 372.87 333.051C367.956 338.224 378.904 360.376 382.407 388.887H397.049C396.895 368.567 398.752 349.872 391.6 343.249C391.6 343.249 432.628 340.855 453.069 340.855C463.493 340.863 469.261 310.074 433.218 316.637Z" fill="#3F964F"/>
<path d="M425.517 246.981C425.472 246.928 425.446 246.865 425.441 246.799C425.437 246.733 425.454 246.668 425.492 246.611C425.53 246.554 425.586 246.507 425.653 246.478C425.72 246.448 425.796 246.437 425.871 246.444C428.281 246.726 430.723 246.726 433.133 246.444C433.208 246.437 433.284 246.448 433.352 246.478C433.419 246.507 433.475 246.554 433.513 246.611C433.55 246.668 433.568 246.733 433.563 246.799C433.559 246.865 433.532 246.928 433.487 246.981C432.863 247.716 431.576 248.828 429.5 248.826C427.424 248.824 426.141 247.709 425.517 246.981Z" fill="white"/>
<path d="M134.233 294.741C131.337 296.426 132.14 305.609 133.233 306.075C148.296 307.684 173.736 296.776 173.736 296.776L174.731 291.897C174.731 291.897 153.485 295.007 134.233 294.741Z" fill="#F37A50"/>
<path d="M101.139 278.821C106.524 286.337 130.092 305.809 133.75 306.094L136.866 295.06C136.866 295.06 115.718 271.618 111.981 267.874C105.544 261.382 92.3219 266.545 101.139 278.821Z" fill="#F37A50"/>
<path d="M114.02 238.606C114.669 230.898 112.119 224.09 105.09 220.622C97.9655 217.109 89.04 220.556 89.04 220.556C89.04 220.556 81.4829 218.206 74.6384 224.799C67.7938 231.392 72.9702 237.193 70.167 242.001C68.5087 244.849 60.0746 245.437 62.2537 254.71C62.8827 257.386 66.5629 259.186 69.6806 259.364C75.1567 259.68 80.2447 257.828 82.4755 259.68C89.7918 265.779 106.004 263.573 108.272 257.994C108.977 256.263 123.56 259.611 122.106 247.829C121.369 241.855 113.441 245.478 114.02 238.606Z" fill="#2C2858"/>
<path d="M100.657 263.513L89.0784 261.645L84.7373 266.696L93.965 283.232L107.536 273.162L100.657 263.513Z" fill="#F37A50"/>
<path d="M115.666 303.384C115.467 300.238 121.285 287.316 118.221 280.814C115.993 275.582 112.266 266.799 107.704 265.334C105.551 264.642 103.338 264.161 100.657 263.513C100.657 263.513 102.171 270.106 99.0164 270.327C92.9481 270.757 89.0787 261.644 89.0787 261.644C85.8063 261.372 70.7954 265.682 70.8027 266.76C70.8371 275.198 78.6816 287.512 81.2465 296.637C82.2562 306.49 78.3229 318.282 78.2984 319.401C78.2984 319.401 102.446 325.337 116.759 318.447C117.069 317.489 115.939 307.729 115.666 303.384Z" fill="#3F964F"/>
<path d="M81.9415 309.28C81.9415 309.28 76.6102 321.035 75.3082 328.436C74.0061 335.836 81.3445 340.584 81.3445 340.584H142.356C142.356 340.584 148.884 331.326 147.007 324.937C145.13 318.548 140.798 317.528 140.798 317.528L81.9415 309.28Z" fill="#3F964F"/>
<path d="M143.173 317.193C135.385 316.233 112.778 323.908 103.128 340.584H130.106L143.173 317.193Z" fill="#DE623C"/>
<path d="M134.635 323.331C135.683 322.292 136.597 321.156 137.359 319.942C139.634 316.442 145.113 315.849 148.206 318.832C159.451 329.668 183.421 354.372 188.765 357.447C190.276 358.306 199.083 362.749 207.461 361.873C207.461 361.873 211.596 363.247 208.842 366.119C207.424 367.594 186.139 369.125 186.139 369.125L184.48 363.662C172.091 355.647 156.667 356.223 143.59 341.57C136.386 333.495 134.635 323.331 134.635 323.331Z" fill="#DE623C"/>
<path d="M190.446 372.271L199.001 377.123L200.178 375.897L193.242 370.251C197.188 367.53 206.329 369.8 206.329 369.8C209.322 368.109 215.159 362.627 215.761 359.689C213.842 357.602 207.46 361.897 207.46 361.897C207.705 362.827 205.676 366.05 204.072 366.6C197.097 367.916 190.147 366.183 184.476 363.666C184.476 363.658 179.737 369.935 190.446 372.271Z" fill="#E62552"/>
<path d="M134.507 324.804C133.744 324.982 133.058 325.353 132.533 325.869C132.009 326.386 131.67 327.026 131.559 327.71C130.95 331.494 127.798 339.152 132.05 347.173C142.514 366.866 148.692 379.841 149.788 384.922C147.056 389.398 157.955 401.62 158.117 402.421L165.961 400.273C165.961 400.273 161.46 394.421 159.839 392.13C155.979 386.673 155.348 379.977 154.721 374.786C152.043 352.625 156.647 338.634 138.305 325.635C137.229 324.866 135.863 324.486 134.507 324.804Z" fill="#F37A50"/>
<path d="M145.891 394.303L146.663 403.202L148.493 403.278L149.431 395.014C154.301 396.107 157.784 403.838 157.784 403.838C161.138 404.893 169.665 405.625 172.702 404.268C173.439 401.667 165.661 399.835 165.661 399.835C164.956 400.563 160.801 401.124 159.327 400.333C153.903 396.283 150.955 390.403 149.805 384.933C149.797 384.923 141.513 385.436 145.891 394.303Z" fill="#E62552"/>
<path d="M97.7312 255.247L88.3291 254.017L89.0784 261.645C89.0784 261.645 90.8768 265.1 92.965 265.334L100.657 263.517L97.7312 255.247Z" fill="#F37A50"/>
<path d="M79.6296 244.217C82.0569 253.078 90.4787 258.909 98.4387 257.244C106.399 255.58 110.887 247.044 108.46 238.183C106.033 229.322 97.6108 223.491 89.6508 225.158C81.6908 226.824 77.2023 235.357 79.6296 244.217Z" fill="#F37A50"/>
<path d="M104.728 240.51C104.854 240.731 105.051 240.914 105.296 241.037C105.54 241.16 105.821 241.216 106.102 241.199C106.383 241.183 106.653 241.093 106.876 240.943C107.099 240.792 107.266 240.587 107.356 240.353C107.445 240.12 107.454 239.868 107.38 239.63C107.306 239.393 107.153 239.179 106.941 239.017C106.728 238.856 106.465 238.753 106.186 238.721C105.906 238.69 105.622 238.732 105.37 238.842C105.202 238.914 105.053 239.015 104.93 239.138C104.807 239.262 104.713 239.405 104.653 239.56C104.594 239.715 104.57 239.879 104.583 240.042C104.595 240.205 104.645 240.364 104.728 240.51Z" fill="black"/>
<path d="M93.5475 242.922C93.6834 243.16 93.897 243.358 94.1614 243.49C94.4258 243.623 94.7291 243.683 95.033 243.665C95.3369 243.646 95.6277 243.55 95.8687 243.387C96.1096 243.224 96.2899 243.002 96.3868 242.75C96.4836 242.497 96.4926 242.225 96.4127 241.968C96.3328 241.711 96.1676 241.481 95.9378 241.306C95.7081 241.131 95.4242 241.02 95.1221 240.986C94.8199 240.952 94.5131 240.997 94.2403 241.116C93.8748 241.275 93.5966 241.555 93.4668 241.894C93.3369 242.232 93.3659 242.602 93.5475 242.922Z" fill="black"/>
<path d="M91.8429 241.805C91.9501 241.76 92.0367 241.684 92.0886 241.591C92.86 240.135 94.9482 239.851 94.9679 239.847C95.0376 239.838 95.1047 239.818 95.1653 239.787C95.2259 239.755 95.2789 239.714 95.3212 239.665C95.3635 239.616 95.3943 239.56 95.4119 239.5C95.4295 239.44 95.4335 239.378 95.4236 239.318C95.4138 239.257 95.3903 239.198 95.3546 239.145C95.3188 239.092 95.2715 239.046 95.2152 239.009C95.159 238.972 95.095 238.945 95.0268 238.929C94.9587 238.914 94.8877 238.911 94.818 238.919C94.7075 238.934 92.1377 239.271 91.1157 241.198C91.0563 241.31 91.0504 241.439 91.0992 241.555C91.148 241.671 91.2476 241.766 91.3761 241.818C91.4499 241.847 91.5303 241.861 91.6112 241.859C91.6921 241.857 91.7714 241.839 91.8429 241.805Z" fill="#2C2858"/>
<path d="M107.833 238.707C107.886 238.684 107.934 238.654 107.975 238.616C108.025 238.573 108.065 238.522 108.092 238.465C108.119 238.408 108.133 238.347 108.133 238.286C108.133 238.224 108.119 238.163 108.092 238.107C108.065 238.05 108.025 237.998 107.975 237.955C107.493 237.54 106.891 237.246 106.234 237.105C105.577 236.964 104.888 236.981 104.241 237.154C104.106 237.194 103.995 237.279 103.933 237.391C103.87 237.502 103.861 237.631 103.907 237.749C103.953 237.866 104.05 237.963 104.178 238.018C104.305 238.073 104.453 238.081 104.587 238.041C105.046 237.925 105.532 237.918 105.995 238.02C106.458 238.122 106.882 238.329 107.223 238.621C107.302 238.688 107.403 238.733 107.512 238.749C107.621 238.764 107.733 238.749 107.833 238.707Z" fill="#2C2858"/>
<path d="M103.814 243.216C104.595 243.919 105.288 244.642 106.025 245.055C106.146 245.123 106.233 245.229 106.268 245.351C106.302 245.473 106.282 245.602 106.212 245.712C105.608 246.644 103.851 247.413 102.772 247.814C102.741 247.823 102.707 247.822 102.676 247.812C102.644 247.802 102.618 247.784 102.6 247.76C102.582 247.735 102.573 247.707 102.576 247.678C102.578 247.649 102.591 247.621 102.613 247.599C103.701 246.766 104.17 246.152 104.367 245.815C104.414 245.732 104.439 245.64 104.439 245.548C104.439 245.455 104.414 245.363 104.367 245.28C104.143 244.896 103.699 244.11 103.399 243.459C103.381 243.435 103.368 243.408 103.362 243.38C103.355 243.352 103.355 243.323 103.362 243.295C103.368 243.267 103.381 243.24 103.399 243.216C103.417 243.193 103.44 243.172 103.468 243.156C103.495 243.14 103.526 243.129 103.558 243.124C103.59 243.118 103.623 243.118 103.655 243.124C103.687 243.129 103.718 243.14 103.745 243.156C103.772 243.172 103.796 243.193 103.814 243.216Z" fill="#DE623C"/>
<path d="M83.4628 244.273C85.3963 245.59 85.9663 247.778 84.7354 249.161C83.5046 250.544 80.9348 250.602 79.0013 249.285C77.0678 247.969 76.4979 245.781 77.7287 244.398C78.9595 243.015 81.5269 242.959 83.4628 244.273Z" fill="#F37A50"/>
<path d="M82.3593 248.759C82.4344 248.728 82.4994 248.681 82.5485 248.622C83.2855 247.763 83.3617 246.788 82.7352 246.026C82.4243 245.643 81.985 245.355 81.4783 245.201C80.9715 245.047 80.4224 245.035 79.9074 245.167C79.8406 245.186 79.7789 245.216 79.7256 245.257C79.6724 245.297 79.6287 245.346 79.5971 245.401C79.5655 245.456 79.5466 245.516 79.5415 245.577C79.5363 245.638 79.5451 245.7 79.5672 245.758C79.5893 245.817 79.6243 245.871 79.6703 245.917C79.7163 245.964 79.7723 246.002 79.8351 246.029C79.898 246.057 79.9664 246.074 80.0366 246.078C80.1067 246.083 80.1772 246.075 80.244 246.056C80.541 245.988 80.8543 246 81.1434 246.09C81.4325 246.18 81.684 246.344 81.8655 246.56C82.2143 246.99 82.1529 247.514 81.6935 248.049C81.6215 248.133 81.5841 248.236 81.5872 248.341C81.5904 248.446 81.6339 248.547 81.7108 248.628C81.7877 248.709 81.8935 248.765 82.0111 248.787C82.1287 248.808 82.2514 248.795 82.3593 248.749V248.759Z" fill="#DE623C"/>
<path d="M95.0137 250.282C94.9626 250.224 94.9323 250.154 94.9267 250.08C94.9211 250.007 94.9404 249.934 94.9822 249.871C95.024 249.807 95.0863 249.756 95.1615 249.723C95.2366 249.69 95.3211 249.678 95.4044 249.687C98.0745 249.999 100.78 249.999 103.45 249.687C103.533 249.678 103.618 249.691 103.692 249.724C103.767 249.757 103.829 249.808 103.871 249.871C103.913 249.935 103.933 250.007 103.928 250.08C103.923 250.153 103.894 250.223 103.843 250.282C103.153 251.096 101.728 252.329 99.4212 252.329C97.1143 252.329 95.7016 251.096 95.0137 250.282Z" fill="white"/>
<path d="M79.4339 243.433C88.9367 242.321 102.233 233.86 103.324 229.515C101.486 224.299 91.6932 221.677 86.163 224.095C80.6328 226.513 75.4097 236.868 79.4339 243.433Z" fill="#2C2858"/>
<path d="M168.327 306.253C168.026 306.168 167.748 306.031 167.508 305.851C167.268 305.671 167.071 305.452 166.927 305.205C166.784 304.959 166.698 304.69 166.674 304.414C166.65 304.139 166.688 303.862 166.786 303.599L181.453 264.322C181.551 264.06 181.707 263.816 181.913 263.606C182.119 263.396 182.37 263.223 182.652 263.098C182.934 262.973 183.241 262.897 183.557 262.876C183.872 262.855 184.189 262.888 184.49 262.974C185.097 263.147 185.601 263.525 185.89 264.023C186.18 264.521 186.231 265.099 186.033 265.63L171.366 304.907C171.167 305.438 170.735 305.878 170.165 306.13C169.595 306.383 168.934 306.427 168.327 306.253Z" fill="white"/>
<path d="M176.119 292.17L179.102 284.168C179.102 284.168 181.691 288.77 179.102 293.14C176.513 297.511 174.046 297.706 174.046 297.706L176.119 292.17Z" fill="#F37A50"/>
<path d="M171.85 290.029C171.093 288.474 169.315 284.589 171.093 284.606C172.872 284.623 173.164 286.511 173.164 286.511L171.85 290.029Z" fill="#F37A50"/>
<path d="M24.917 266.64C28.951 263.083 26.3051 259.435 26.3051 259.435C28.5162 259.02 40.1957 274.483 45.2223 284.31C54.0052 276.579 69.4805 266.122 73.6644 265.512C73.6644 265.512 79.3149 264.185 81.3393 270.153C83.15 275.477 76.0892 279.252 76.0892 279.252C76.0892 279.252 45.8708 297.893 41.4142 296.237C34.4714 293.658 28.1796 271.463 24.917 266.64Z" fill="#F37A50"/>
<path d="M18.6097 266.2C21.0664 266.333 24.1227 265.266 25.0734 267.198L29.9379 265.126L30.2327 262.549C26.0562 256.695 15.8605 255.032 14.8533 254.955C12.2319 254.755 11.0133 254.526 10.8094 254.824C10.6055 255.123 9.96181 257.171 13.7575 257.571C18.5286 258.071 15.3618 261.406 5.6772 258.232C3.25236 257.436 -1.30988 258.469 0.341075 260.017C2.16892 261.735 7.39448 265.603 18.6097 266.2Z" fill="#F37A50"/>
<path d="M282.168 146.97C282.169 148.879 281.799 150.774 281.075 152.575C277.503 161.539 265.58 168.123 251.417 168.123C237.254 168.123 225.333 161.539 221.764 152.575C221.039 150.774 220.668 148.879 220.668 146.97H282.168Z" fill="#3F964F"/>
<path d="M282.168 146.97C282.169 148.879 281.799 150.774 281.075 152.575H221.764C221.039 150.774 220.668 148.879 220.668 146.97H282.168Z" fill="#0E6A41"/>
<path d="M315.814 56.2895C315.814 25.2273 287.033 0.043007 251.51 5.5977e-05C216.477 -0.042895 187.661 24.6367 187.032 55.2565C186.741 68.0973 191.503 80.6361 200.522 90.7748C211.509 103.147 217.609 118.302 217.609 133.964V134.235H285.234V133.96C285.234 118.283 291.376 103.119 302.368 90.7169C311.106 80.8678 315.837 68.7532 315.814 56.2895Z" fill="#FFE91D"/>
<path d="M261.158 127.872C260.974 127.872 260.791 127.844 260.618 127.79C260.205 127.664 259.867 127.401 259.677 127.057C259.487 126.714 259.46 126.319 259.603 125.958C259.679 125.767 267.273 106.643 272.791 87.169C282.574 52.6493 277.54 47.0442 274.916 46.2281C267.219 43.8465 261.089 47.3706 257.303 50.738C256.149 51.7767 255.085 52.8902 254.122 54.0688C255.831 56.6704 257.292 59.3905 258.49 62.2016C261.9 70.1647 262.807 77.6038 260.915 82.0987C259.456 85.5669 256.353 87.3258 252.179 87.0509C248.248 86.791 245.359 84.7981 243.848 81.2869C242.113 77.2602 242.337 71.3394 244.462 65.0407C245.781 61.1217 247.727 57.3852 250.243 53.9421C247.973 50.8024 245.341 48.1008 242.489 46.2818C238.251 43.5823 234.271 43.4642 230.66 45.9318C223.203 51.0279 222.916 66.355 229.834 90.2529C235.168 108.679 242.993 125.715 243.071 125.885C243.225 126.237 243.215 126.629 243.042 126.974C242.869 127.32 242.548 127.593 242.148 127.733C241.748 127.874 241.3 127.872 240.901 127.727C240.503 127.582 240.186 127.306 240.017 126.959C239.939 126.787 232.04 109.596 226.65 90.9831C219.28 65.5217 219.943 49.5998 228.633 43.6618C233.404 40.4018 239.015 40.5049 244.427 43.9539C247.13 45.6719 249.832 48.2747 252.255 51.4445C253.093 50.4909 253.995 49.5816 254.957 48.7214C261.259 43.1034 268.737 41.2522 276.019 43.505C280.552 44.9074 282.407 50.2419 281.704 59.8114C281.183 66.8682 279.247 76.3089 275.982 87.8648C270.427 107.468 262.789 126.701 262.716 126.894C262.605 127.179 262.395 127.426 262.116 127.601C261.837 127.776 261.502 127.871 261.158 127.872ZM252.122 56.7704C250.206 59.6314 248.696 62.6855 247.624 65.8653C245.725 71.4898 245.467 76.8801 246.933 80.2818C247.99 82.7386 249.788 84.0164 252.429 84.1904C255.156 84.3686 256.871 83.3915 257.834 81.1151C260.013 75.9309 257.365 65.3413 252.124 56.7704H252.122Z" fill="white"/>
<path d="M279.525 127.154H223.314C216.612 127.154 211.18 131.903 211.18 137.761V138.206C211.18 144.064 216.612 148.812 223.314 148.812H279.525C286.226 148.812 291.659 144.064 291.659 138.206V137.761C291.659 131.903 286.226 127.154 279.525 127.154Z" fill="#3F964F"/>
<path d="M360.818 58.6043H339.776C338.336 58.6043 336.956 58.1045 335.938 57.2149C334.92 56.3252 334.349 55.1186 334.349 53.8604C334.349 53.2374 334.489 52.6205 334.762 52.045C335.034 51.4694 335.434 50.9464 335.938 50.5059C336.442 50.0654 337.04 49.716 337.699 49.4776C338.357 49.2392 339.063 49.1165 339.776 49.1165H360.83C362.27 49.1165 363.65 49.6163 364.668 50.5059C365.685 51.3956 366.257 52.6022 366.257 53.8604C366.257 54.4843 366.116 55.102 365.843 55.6783C365.569 56.2546 365.169 56.778 364.663 57.2187C364.158 57.6593 363.558 58.0085 362.899 58.2463C362.239 58.4841 361.532 58.6057 360.818 58.6043Z" fill="#FFE91D"/>
<path d="M163.074 58.6043H142.019C140.581 58.6026 139.203 58.1021 138.187 57.2126C137.17 56.3231 136.6 55.1174 136.6 53.8604C136.6 53.2374 136.74 52.6205 137.013 52.045C137.285 51.4694 137.685 50.9464 138.189 50.5059C138.693 50.0654 139.291 49.716 139.95 49.4776C140.608 49.2392 141.314 49.1165 142.027 49.1165H163.081C164.521 49.1165 165.901 49.6163 166.919 50.5059C167.936 51.3956 168.508 52.6022 168.508 53.8604C168.508 54.4839 168.368 55.1013 168.094 55.6773C167.821 56.2533 167.421 56.7765 166.916 57.2171C166.411 57.6577 165.812 58.007 165.153 58.2451C164.494 58.4831 163.787 58.6052 163.074 58.6043Z" fill="#FFE91D"/>
<path d="M176.457 19.6631L159.694 8.51729C158.55 7.75499 157.798 6.62683 157.605 5.38059C157.412 4.13435 157.792 2.87193 158.662 1.87062C159.094 1.37484 159.633 0.958219 160.248 0.644557C160.864 0.330895 161.544 0.12634 162.25 0.0425787C162.957 -0.041183 163.675 -0.00251012 164.364 0.156389C165.053 0.315288 165.699 0.591297 166.266 0.968651L183.034 12.1123C183.602 12.4897 184.08 12.9614 184.44 13.5005C184.8 14.0396 185.034 14.6354 185.13 15.2538C185.226 15.8723 185.181 16.5012 184.998 17.1045C184.816 17.7078 184.499 18.2737 184.065 18.7697C183.633 19.2652 183.093 19.6814 182.477 19.9945C181.86 20.3075 181.179 20.5114 180.473 20.5944C179.766 20.6773 179.048 20.6378 178.359 20.478C177.67 20.3182 177.023 20.0413 176.457 19.6631Z" fill="#FFE91D"/>
<path d="M325.31 19.6629L342.065 8.5171C342.633 8.14 343.109 7.66891 343.468 7.13074C343.827 6.59258 344.061 5.99788 344.157 5.38064C344.253 4.7634 344.208 4.1357 344.027 3.53341C343.845 2.93111 343.529 2.36603 343.097 1.87044C342.666 1.37313 342.126 0.955182 341.51 0.640569C340.893 0.325957 340.211 0.12087 339.504 0.0370707C338.796 -0.0467285 338.076 -0.0075905 337.386 0.152241C336.696 0.312072 336.049 0.58945 335.481 0.968466L318.726 12.1121C318.158 12.4895 317.68 12.9612 317.32 13.5002C316.96 14.0392 316.726 14.6349 316.629 15.2533C316.533 15.8717 316.578 16.5005 316.76 17.1039C316.942 17.7072 317.259 18.2732 317.692 18.7695C318.124 19.266 318.665 19.683 319.282 19.9967C319.899 20.3104 320.581 20.5146 321.289 20.5975C321.997 20.6805 322.716 20.6407 323.406 20.4803C324.096 20.3199 324.743 20.0422 325.31 19.6629Z" fill="#FFE91D"/>
<path d="M176.456 93.9403L159.693 105.086C159.125 105.464 158.647 105.935 158.288 106.475C157.928 107.014 157.694 107.609 157.598 108.228C157.502 108.846 157.547 109.475 157.729 110.078C157.912 110.681 158.228 111.247 158.661 111.743C159.093 112.239 159.632 112.656 160.247 112.97C160.863 113.283 161.543 113.488 162.25 113.572C162.956 113.655 163.674 113.617 164.363 113.458C165.052 113.299 165.698 113.023 166.265 112.645L183.033 101.491C183.601 101.114 184.079 100.642 184.439 100.103C184.799 99.5638 185.033 98.968 185.129 98.3496C185.225 97.7311 185.18 97.1022 184.998 96.4989C184.815 95.8956 184.498 95.3297 184.065 94.8337C183.632 94.3382 183.092 93.922 182.476 93.6089C181.859 93.2958 181.179 93.092 180.472 93.009C179.765 92.9261 179.047 92.9656 178.358 93.1254C177.669 93.2852 177.023 93.5621 176.456 93.9403Z" fill="#FFE91D"/>
<path d="M325.31 93.9401L342.065 105.086C342.634 105.463 343.113 105.935 343.472 106.474C343.832 107.013 344.067 107.609 344.163 108.227C344.259 108.846 344.214 109.475 344.031 110.078C343.848 110.682 343.531 111.247 343.097 111.743C342.666 112.241 342.126 112.659 341.51 112.973C340.893 113.288 340.211 113.493 339.504 113.577C338.796 113.66 338.076 113.621 337.386 113.462C336.696 113.302 336.049 113.024 335.481 112.645L318.726 101.502C318.158 101.124 317.68 100.653 317.32 100.114C316.96 99.5746 316.726 98.9788 316.629 98.3605C316.533 97.7421 316.578 97.1132 316.76 96.5099C316.942 95.9065 317.259 95.3405 317.692 94.8442C318.124 94.3469 318.663 93.929 319.28 93.6143C319.897 93.2996 320.579 93.0944 321.286 93.0104C321.994 92.9264 322.714 92.9653 323.404 93.1249C324.095 93.2844 324.742 93.5614 325.31 93.9401Z" fill="#FFE91D"/>
<path d="M265.384 288.33C265.384 288.33 260.542 280.345 258.606 271.873C256.923 264.636 257.002 255.981 257.208 251.375C257.218 251.147 257.311 250.928 257.475 250.75C257.638 250.572 257.863 250.445 258.116 250.387C258.368 250.33 258.635 250.345 258.877 250.431C259.119 250.517 259.323 250.669 259.458 250.864C262.507 255.219 268.018 263.964 269.256 271.88C270.145 277.337 270.719 282.829 270.976 288.336L265.384 288.33Z" fill="#3F964F"/>
<path d="M270.45 288.33C270.45 288.33 273.678 278.567 277.228 272.056C279.811 267.331 285.685 261.651 288.702 258.909C288.825 258.794 288.989 258.718 289.166 258.692C289.344 258.666 289.527 258.691 289.687 258.764C289.847 258.837 289.975 258.953 290.052 259.096C290.129 259.238 290.151 259.399 290.114 259.553C289.34 263.163 287.549 270.291 284.623 275.14C280.557 281.894 273.782 288.339 273.782 288.339L270.45 288.33Z" fill="#3F964F"/>
<path d="M253.846 279.669C253.743 279.494 253.702 279.296 253.728 279.101C253.755 278.906 253.847 278.722 253.994 278.573C254.141 278.424 254.336 278.317 254.553 278.265C254.77 278.214 254.999 278.22 255.212 278.284C257.658 279.007 259.914 280.151 261.846 281.649C265.457 284.518 266.13 287.787 266.13 287.787L264.887 288.152C264.887 288.152 258.168 287.08 253.846 279.669Z" fill="#0E6A41"/>
<path d="M279.117 256.84C279.105 256.615 279.012 256.399 278.852 256.222C278.692 256.046 278.472 255.918 278.224 255.857C277.976 255.795 277.712 255.804 277.469 255.881C277.227 255.958 277.019 256.1 276.874 256.286C274.353 259.353 270.123 265.396 268.737 272.803C267.017 282.038 269.022 288.336 269.022 288.336H270.449C270.449 288.336 275.704 279.63 277.753 273.733C279.687 268.169 279.439 260.777 279.117 256.84Z" fill="#0E6A41"/>
<path d="M273.78 288.33C273.78 288.33 276.802 279.525 287.145 276.179C287.281 276.134 287.429 276.125 287.57 276.153C287.712 276.181 287.841 276.245 287.941 276.336C288.041 276.428 288.108 276.544 288.133 276.668C288.159 276.793 288.142 276.922 288.084 277.038C286.72 279.946 282.833 286.891 276.269 288.334L273.78 288.33Z" fill="#0E6A41"/>
<path d="M282.935 286.842H258.996L262.07 308.281H279.862L282.935 286.842Z" fill="#768FDB"/>
<path d="M257.194 303.606V306.683H258.152C258.376 306.683 258.59 306.761 258.748 306.899C258.906 307.037 258.995 307.224 258.995 307.42V307.544C258.995 307.74 258.906 307.927 258.748 308.065C258.59 308.203 258.376 308.281 258.152 308.281H217.306C217.045 308.281 216.795 308.19 216.611 308.029C216.427 307.868 216.323 307.65 216.323 307.422V302.989C216.323 302.762 216.427 302.543 216.611 302.382C216.795 302.221 217.045 302.13 217.306 302.13H258.152C258.263 302.13 258.373 302.149 258.475 302.186C258.578 302.223 258.671 302.277 258.749 302.345C258.827 302.414 258.889 302.495 258.932 302.585C258.974 302.674 258.995 302.77 258.995 302.867C258.995 302.964 258.973 303.059 258.931 303.149C258.888 303.238 258.826 303.319 258.748 303.387C258.67 303.455 258.577 303.509 258.475 303.546C258.372 303.583 258.263 303.602 258.152 303.601L257.194 303.606Z" fill="#E62552"/>
<path d="M221.603 303.608H257.329V306.685H221.603C221.413 306.685 221.231 306.619 221.097 306.502C220.963 306.385 220.888 306.226 220.888 306.06V304.235C220.887 304.153 220.906 304.071 220.941 303.995C220.977 303.919 221.03 303.85 221.096 303.791C221.163 303.733 221.242 303.687 221.328 303.655C221.415 303.624 221.509 303.608 221.603 303.608Z" fill="white"/>
<path d="M212.717 296.963V300.367H211.759C211.523 300.378 211.302 300.47 211.144 300.623C210.986 300.776 210.904 300.977 210.916 301.183V301.321C210.905 301.526 210.987 301.727 211.145 301.88C211.303 302.032 211.524 302.124 211.759 302.135H252.605C252.879 302.122 253.137 302.016 253.321 301.838C253.505 301.66 253.601 301.425 253.588 301.185V296.282C253.601 296.043 253.505 295.808 253.321 295.63C253.137 295.452 252.879 295.345 252.605 295.333H211.759C211.523 295.344 211.302 295.436 211.144 295.589C210.986 295.742 210.904 295.943 210.916 296.149C210.905 296.355 210.987 296.556 211.145 296.709C211.303 296.861 211.524 296.953 211.759 296.963H212.717Z" fill="#3F964F"/>
<path d="M248.283 300.367H212.594V296.963H248.283C248.483 296.963 248.674 297.032 248.815 297.156C248.956 297.279 249.035 297.446 249.035 297.62V299.71C249.035 299.884 248.956 300.051 248.815 300.174C248.674 300.298 248.483 300.367 248.283 300.367Z" fill="white"/>
<path d="M252.982 286.659H215.732C214.91 286.659 214.243 287.242 214.243 287.961V290.879C214.243 291.598 214.91 292.181 215.732 292.181H252.982C253.804 292.181 254.47 291.598 254.47 290.879V287.961C254.47 287.242 253.804 286.659 252.982 286.659Z" fill="#E62552"/>
<path d="M255.975 292.181H217.998C217.377 292.181 216.873 292.621 216.873 293.164V294.352C216.873 294.895 217.377 295.335 217.998 295.335H255.975C256.597 295.335 257.1 294.895 257.1 294.352V293.164C257.1 292.621 256.597 292.181 255.975 292.181Z" fill="#768FDB"/>
</g>
<defs>
<clipPath id="clip0_454_987">
<rect width="482" height="405" fill="white"/>
</clipPath>
</defs>
</svg>
