<svg width="82" height="81" viewBox="0 0 82 81" fill="none" xmlns="http://www.w3.org/2000/svg">
<circle cx="41.0692" cy="40.1519" r="38.5977" stroke="#FEA600" stroke-width="3.10854"/>
<path fill-rule="evenodd" clip-rule="evenodd" d="M37.923 17.8481C32.3896 19.2463 28.1701 23.7992 27.1184 29.5074C26.5579 32.5493 26.9833 34.7059 28.9351 38.7147C31.1453 43.2547 40.2965 56.3969 41.2475 56.3969C42.0082 56.3969 49.3694 46.3041 52.1658 41.4278C55.3477 35.8782 56.1431 32.8668 55.3901 29.2222C54.0227 22.6031 48.7047 17.9563 42.1367 17.6414C40.5665 17.5661 38.6706 17.6591 37.923 17.8481ZM44.3538 25.032C47.0419 26.2531 48.8684 29.136 48.8738 32.1662C48.8774 34.1484 47.0861 37.0827 45.1517 38.2633C41.3677 40.5727 36.6844 39.223 34.6661 35.2417C34.1183 34.1614 33.6716 32.7777 33.6727 32.1662C33.6828 26.5789 39.3809 22.7729 44.3538 25.032ZM32.0413 51.6832C19.8943 53.9387 20.3389 59.3631 32.8646 61.7254C36.0132 62.3195 46.5332 62.3195 49.6819 61.7254C55.9085 60.5513 59.375 58.7085 59.375 56.5725C59.375 54.6009 55.7999 52.6614 50.3241 51.6626L47.6089 51.1677L46.4377 52.5152C45.7936 53.2563 45.2639 53.9785 45.261 54.1201C45.2582 54.262 45.9478 54.5621 46.7943 54.7873C48.3333 55.1971 49.6 56.0403 49.6 56.6543C49.6 56.8339 48.826 57.3364 47.8804 57.7708C46.3826 58.4591 45.53 58.5608 41.2732 58.5608C37.0164 58.5608 36.1638 58.4591 34.6661 57.7708C33.7204 57.3364 32.9464 56.8339 32.9464 56.6543C32.9464 56.0403 34.2132 55.1971 35.7522 54.7873C36.5983 54.5621 37.2908 54.2855 37.2908 54.1722C37.2908 53.8265 35.0737 51.1452 34.8167 51.18C34.6842 51.1981 33.4352 51.4244 32.0413 51.6832Z" fill="#FEA600"/>
</svg>
