<svg width="81" height="81" viewBox="0 0 81 81" fill="none" xmlns="http://www.w3.org/2000/svg">
<g id="CONTACT US">
<g id="Frame 109">
<g id="Group 127">
<g id="Group 121">
<path id="542689 2 (Traced)" fill-rule="evenodd" clip-rule="evenodd" d="M20.9576 24.589C20.6277 24.919 39.7736 44.0386 40.4338 44.0386C41.094 44.0386 60.2399 24.919 59.91 24.589C59.5914 24.2705 21.2762 24.2705 20.9576 24.589ZM18.5665 26.9805C18.223 27.3236 18.26 52.5965 18.6038 52.8093C18.7585 52.905 21.8283 50.0374 25.4252 46.4367L31.9647 39.8902L25.3875 33.3134C21.7702 29.6958 18.7005 26.8461 18.5665 26.9805ZM55.4438 33.3473L48.9053 39.8927L55.4438 46.438C59.04 50.0378 62.1091 52.905 62.2638 52.8093C62.6318 52.5816 62.6318 27.2037 62.2638 26.976C62.1091 26.8803 59.04 29.7476 55.4438 33.3473ZM27.2024 48.4595C23.6345 52.0316 20.8246 55.0633 20.9583 55.1967C21.301 55.5394 59.7027 55.5014 59.9148 55.1583C60.0105 55.0035 57.145 51.9359 53.5474 48.3421L47.0058 41.807L45.0154 43.7473C42.7144 45.9903 41.926 46.4571 40.4393 46.4571C38.9534 46.4571 37.787 45.7716 35.7828 43.72C34.8396 42.7551 33.9831 41.9656 33.8791 41.9656C33.7751 41.9656 30.7707 44.8878 27.2024 48.4595Z" fill="#FEA600"/>
<circle id="Ellipse 15" cx="40.3453" cy="40.1519" r="38.5977" stroke="#FEA600" stroke-width="3.10854"/>
</g>
</g>
</g>
</g>
</svg>
